<?xml version="1.0" encoding="UTF-8" standalone="no"?><svg xmlns="http://www.w3.org/2000/svg" xmlns:xlink="http://www.w3.org/1999/xlink" clip-rule="evenodd" stroke-miterlimit="10" viewBox="0 0 1024 768"><desc>SVG generated by Keynote</desc><defs></defs><g transform="matrix(1.00, 0.00, -0.00, -1.00, 0.0, 768.0)"><path d="M 0.0 768.0 L 1024.0 768.0 L 1024.0 0.0 L 0.0 0.0 Z M 0.0 768.0 " fill="#0D3A4C"></path><text xml:space="preserve" font-family="Lato-Regular,Lato" font-size="80.0" fill="#FEFFFF" transform="matrix(1.00, 0.00, -0.00, -1.00, 330.3, 632.0)">R</text><text xml:space="preserve" font-family="Lato-Regular,Lato" font-size="80.0" fill="#FEFFFF" transform="matrix(1.00, 0.00, -0.00, -1.00, 381.8, 632.0)">e</text><text xml:space="preserve" font-family="Lato-Regular,Lato" font-size="80.0" fill="#FEFFFF" transform="matrix(1.00, 0.00, -0.00, -1.00, 423.8, 632.0)">s</text><text xml:space="preserve" font-family="Lato-Regular,Lato" font-size="80.0" fill="#FEFFFF" transform="matrix(1.00, 0.00, -0.00, -1.00, 458.5, 632.0)">o</text><text xml:space="preserve" font-family="Lato-Regular,Lato" font-size="80.0" fill="#FEFFFF" transform="matrix(1.00, 0.00, -0.00, -1.00, 503.0, 632.0)">u</text><text xml:space="preserve" font-family="Lato-Regular,Lato" font-size="80.0" fill="#FEFFFF" transform="matrix(1.00, 0.00, -0.00, -1.00, 547.4, 632.0)">r</text><text xml:space="preserve" font-family="Lato-Regular,Lato" font-size="80.0" fill="#FEFFFF" transform="matrix(1.00, 0.00, -0.00, -1.00, 579.7, 632.0)">c</text><text xml:space="preserve" font-family="Lato-Regular,Lato" font-size="80.0" fill="#FEFFFF" transform="matrix(1.00, 0.00, -0.00, -1.00, 617.0, 632.0)">e</text><text xml:space="preserve" font-family="Lato-Regular,Lato" font-size="80.0" fill="#FEFFFF" transform="matrix(1.00, 0.00, -0.00, -1.00, 659.0, 632.0)">s</text><image xlink:href="../../3EB3639E-8BBA-4D52-991E-2CB7DB26DC15/assets/D7CCA5175834FE276CFF6875903A785B.png" width="927.00" height="945.00" transform="matrix(0.99, 0.00, -0.00, -0.99, 51.0, 609.0)"></image></g></svg>