<?xml version="1.0" encoding="UTF-8" standalone="no"?><svg xmlns="http://www.w3.org/2000/svg" xmlns:xlink="http://www.w3.org/1999/xlink" clip-rule="evenodd" stroke-miterlimit="10" viewBox="0 0 1024 768"><desc>SVG generated by Keynote</desc><defs></defs><g transform="matrix(1.00, 0.00, -0.00, -1.00, 0.0, 768.0)"><path d="M 0.0 768.0 L 1024.0 768.0 L 1024.0 0.0 L 0.0 0.0 Z M 0.0 768.0 " fill="#0D3A4C"></path><text xml:space="preserve" font-family="Lato-Italic,Lato" font-style="italic" font-size="24.0" fill="#FEFFFE" transform="matrix(1.00, 0.00, -0.00, -1.00, 427.5, 239.1)">–</text><text xml:space="preserve" font-family="Lato-Italic,Lato" font-style="italic" font-size="24.0" fill="#FEFFFE" transform="matrix(1.00, 0.00, -0.00, -1.00, 439.8, 239.1)">H</text><text xml:space="preserve" font-family="Lato-Italic,Lato" font-style="italic" font-size="24.0" fill="#FEFFFE" transform="matrix(1.00, 0.00, -0.00, -1.00, 456.5, 239.1)">a</text><text xml:space="preserve" font-family="Lato-Italic,Lato" font-style="italic" font-size="24.0" fill="#FEFFFE" transform="matrix(1.00, 0.00, -0.00, -1.00, 468.6, 239.1)">r</text><text xml:space="preserve" font-family="Lato-Italic,Lato" font-style="italic" font-size="24.0" fill="#FEFFFE" transform="matrix(1.00, 0.00, -0.00, -1.00, 476.5, 239.1)">o</text><text xml:space="preserve" font-family="Lato-Italic,Lato" font-style="italic" font-size="24.0" fill="#FEFFFE" transform="matrix(1.00, 0.00, -0.00, -1.00, 488.6, 239.1)">l</text><text xml:space="preserve" font-family="Lato-Italic,Lato" font-style="italic" font-size="24.0" fill="#FEFFFE" transform="matrix(1.00, 0.00, -0.00, -1.00, 494.3, 239.1)">d</text><text xml:space="preserve" font-family="Lato-Italic,Lato" font-style="italic" font-size="24.0" fill="#FEFFFE" transform="matrix(1.00, 0.00, -0.00, -1.00, 506.9, 239.1)"> </text><text xml:space="preserve" font-family="Lato-Italic,Lato" font-style="italic" font-size="24.0" fill="#FEFFFE" transform="matrix(1.00, 0.00, -0.00, -1.00, 511.5, 239.1)">S</text><text xml:space="preserve" font-family="Lato-Italic,Lato" font-style="italic" font-size="24.0" fill="#FEFFFE" transform="matrix(1.00, 0.00, -0.00, -1.00, 523.2, 239.1)">.</text><text xml:space="preserve" font-family="Lato-Italic,Lato" font-style="italic" font-size="24.0" fill="#FEFFFE" transform="matrix(1.00, 0.00, -0.00, -1.00, 528.3, 239.1)"> </text><text xml:space="preserve" font-family="Lato-Italic,Lato" font-style="italic" font-size="24.0" fill="#FEFFFE" transform="matrix(1.00, 0.00, -0.00, -1.00, 533.0, 239.1)">D</text><text xml:space="preserve" font-family="Lato-Italic,Lato" font-style="italic" font-size="24.0" fill="#FEFFFE" transform="matrix(1.00, 0.00, -0.00, -1.00, 549.6, 239.1)">o</text><text xml:space="preserve" font-family="Lato-Italic,Lato" font-style="italic" font-size="24.0" fill="#FEFFFE" transform="matrix(1.00, 0.00, -0.00, -1.00, 561.6, 239.1)">d</text><text xml:space="preserve" font-family="Lato-Italic,Lato" font-style="italic" font-size="24.0" fill="#FEFFFE" transform="matrix(1.00, 0.00, -0.00, -1.00, 574.2, 239.1)">g</text><text xml:space="preserve" font-family="Lato-Italic,Lato" font-style="italic" font-size="24.0" fill="#FEFFFE" transform="matrix(1.00, 0.00, -0.00, -1.00, 585.4, 239.1)">e</text><text xml:space="preserve" font-family="Lato-Regular,Lato" font-size="38.0" fill="#FEFFFF" transform="matrix(1.00, 0.00, -0.00, -1.00, 159.2, 390.1)">“</text><text xml:space="preserve" font-family="Lato-Regular,Lato" font-size="38.0" fill="#FEFFFF" transform="matrix(1.00, 0.00, -0.00, -1.00, 173.6, 390.1)">Y</text><text xml:space="preserve" font-family="Lato-Regular,Lato" font-size="38.0" fill="#FEFFFF" transform="matrix(1.00, 0.00, -0.00, -1.00, 194.4, 390.1)">o</text><text xml:space="preserve" font-family="Lato-Regular,Lato" font-size="38.0" fill="#FEFFFF" transform="matrix(1.00, 0.00, -0.00, -1.00, 215.6, 390.1)">u</text><text xml:space="preserve" font-family="Lato-Regular,Lato" font-size="38.0" fill="#FEFFFF" transform="matrix(1.00, 0.00, -0.00, -1.00, 236.7, 390.1)"> </text><text xml:space="preserve" font-family="Lato-Regular,Lato" font-size="38.0" fill="#FEFFFF" transform="matrix(1.00, 0.00, -0.00, -1.00, 244.0, 390.1)">c</text><text xml:space="preserve" font-family="Lato-Regular,Lato" font-size="38.0" fill="#FEFFFF" transform="matrix(1.00, 0.00, -0.00, -1.00, 261.8, 390.1)">a</text><text xml:space="preserve" font-family="Lato-Regular,Lato" font-size="38.0" fill="#FEFFFF" transform="matrix(1.00, 0.00, -0.00, -1.00, 281.0, 390.1)">n</text><text xml:space="preserve" font-family="Lato-Regular,Lato" font-size="38.0" fill="#FEFFFF" transform="matrix(1.00, 0.00, -0.00, -1.00, 302.2, 390.1)">n</text><text xml:space="preserve" font-family="Lato-Regular,Lato" font-size="38.0" fill="#FEFFFF" transform="matrix(1.00, 0.00, -0.00, -1.00, 323.3, 390.1)">o</text><text xml:space="preserve" font-family="Lato-Regular,Lato" font-size="38.0" fill="#FEFFFF" transform="matrix(1.00, 0.00, -0.00, -1.00, 344.4, 390.1)">t</text><text xml:space="preserve" font-family="Lato-Regular,Lato" font-size="38.0" fill="#FEFFFF" transform="matrix(1.00, 0.00, -0.00, -1.00, 358.6, 390.1)"> </text><text xml:space="preserve" font-family="Lato-Regular,Lato" font-size="38.0" fill="#FEFFFF" transform="matrix(1.00, 0.00, -0.00, -1.00, 365.9, 390.1)">i</text><text xml:space="preserve" font-family="Lato-Regular,Lato" font-size="38.0" fill="#FEFFFF" transform="matrix(1.00, 0.00, -0.00, -1.00, 375.7, 390.1)">n</text><text xml:space="preserve" font-family="Lato-Regular,Lato" font-size="38.0" fill="#FEFFFF" transform="matrix(1.00, 0.00, -0.00, -1.00, 396.8, 390.1)">s</text><text xml:space="preserve" font-family="Lato-Regular,Lato" font-size="38.0" fill="#FEFFFF" transform="matrix(1.00, 0.00, -0.00, -1.00, 413.3, 390.1)">p</text><text xml:space="preserve" font-family="Lato-Regular,Lato" font-size="38.0" fill="#FEFFFF" transform="matrix(1.00, 0.00, -0.00, -1.00, 434.3, 390.1)">e</text><text xml:space="preserve" font-family="Lato-Regular,Lato" font-size="38.0" fill="#FEFFFF" transform="matrix(1.00, 0.00, -0.00, -1.00, 454.2, 390.1)">c</text><text xml:space="preserve" font-family="Lato-Regular,Lato" font-size="38.0" fill="#FEFFFF" transform="matrix(1.00, 0.00, -0.00, -1.00, 471.9, 390.1)">t</text><text xml:space="preserve" font-family="Lato-Regular,Lato" font-size="38.0" fill="#FEFFFF" transform="matrix(1.00, 0.00, -0.00, -1.00, 486.1, 390.1)"> </text><text xml:space="preserve" font-family="Lato-Regular,Lato" font-size="38.0" fill="#FEFFFF" transform="matrix(1.00, 0.00, -0.00, -1.00, 493.4, 390.1)">q</text><text xml:space="preserve" font-family="Lato-Regular,Lato" font-size="38.0" fill="#FEFFFF" transform="matrix(1.00, 0.00, -0.00, -1.00, 514.7, 390.1)">u</text><text xml:space="preserve" font-family="Lato-Regular,Lato" font-size="38.0" fill="#FEFFFF" transform="matrix(1.00, 0.00, -0.00, -1.00, 535.8, 390.1)">a</text><text xml:space="preserve" font-family="Lato-Regular,Lato" font-size="38.0" fill="#FEFFFF" transform="matrix(1.00, 0.00, -0.00, -1.00, 555.1, 390.1)">l</text><text xml:space="preserve" font-family="Lato-Regular,Lato" font-size="38.0" fill="#FEFFFF" transform="matrix(1.00, 0.00, -0.00, -1.00, 564.8, 390.1)">i</text><text xml:space="preserve" font-family="Lato-Regular,Lato" font-size="38.0" fill="#FEFFFF" transform="matrix(1.00, 0.00, -0.00, -1.00, 574.5, 390.1)">t</text><text xml:space="preserve" font-family="Lato-Regular,Lato" font-size="38.0" fill="#FEFFFF" transform="matrix(1.00, 0.00, -0.00, -1.00, 588.7, 390.1)">y</text><text xml:space="preserve" font-family="Lato-Regular,Lato" font-size="38.0" fill="#FEFFFF" transform="matrix(1.00, 0.00, -0.00, -1.00, 608.1, 390.1)"> </text><text xml:space="preserve" font-family="Lato-Regular,Lato" font-size="38.0" fill="#FEFFFF" transform="matrix(1.00, 0.00, -0.00, -1.00, 615.5, 390.1)">i</text><text xml:space="preserve" font-family="Lato-Regular,Lato" font-size="38.0" fill="#FEFFFF" transform="matrix(1.00, 0.00, -0.00, -1.00, 625.2, 390.1)">n</text><text xml:space="preserve" font-family="Lato-Regular,Lato" font-size="38.0" fill="#FEFFFF" transform="matrix(1.00, 0.00, -0.00, -1.00, 646.3, 390.1)">t</text><text xml:space="preserve" font-family="Lato-Regular,Lato" font-size="38.0" fill="#FEFFFF" transform="matrix(1.00, 0.00, -0.00, -1.00, 660.5, 390.1)">o</text><text xml:space="preserve" font-family="Lato-Regular,Lato" font-size="38.0" fill="#FEFFFF" transform="matrix(1.00, 0.00, -0.00, -1.00, 681.6, 390.1)"> </text><text xml:space="preserve" font-family="Lato-Regular,Lato" font-size="38.0" fill="#FEFFFF" transform="matrix(1.00, 0.00, -0.00, -1.00, 689.0, 390.1)">a</text><text xml:space="preserve" font-family="Lato-Regular,Lato" font-size="38.0" fill="#FEFFFF" transform="matrix(1.00, 0.00, -0.00, -1.00, 708.2, 390.1)"> </text><text xml:space="preserve" font-family="Lato-Regular,Lato" font-size="38.0" fill="#FEFFFF" transform="matrix(1.00, 0.00, -0.00, -1.00, 715.6, 390.1)">p</text><text xml:space="preserve" font-family="Lato-Regular,Lato" font-size="38.0" fill="#FEFFFF" transform="matrix(1.00, 0.00, -0.00, -1.00, 736.5, 390.1)">r</text><text xml:space="preserve" font-family="Lato-Regular,Lato" font-size="38.0" fill="#FEFFFF" transform="matrix(1.00, 0.00, -0.00, -1.00, 751.9, 390.1)">o</text><text xml:space="preserve" font-family="Lato-Regular,Lato" font-size="38.0" fill="#FEFFFF" transform="matrix(1.00, 0.00, -0.00, -1.00, 773.0, 390.1)">d</text><text xml:space="preserve" font-family="Lato-Regular,Lato" font-size="38.0" fill="#FEFFFF" transform="matrix(1.00, 0.00, -0.00, -1.00, 794.2, 390.1)">u</text><text xml:space="preserve" font-family="Lato-Regular,Lato" font-size="38.0" fill="#FEFFFF" transform="matrix(1.00, 0.00, -0.00, -1.00, 815.4, 390.1)">c</text><text xml:space="preserve" font-family="Lato-Regular,Lato" font-size="38.0" fill="#FEFFFF" transform="matrix(1.00, 0.00, -0.00, -1.00, 833.1, 390.1)">t</text><text xml:space="preserve" font-family="Lato-Regular,Lato" font-size="38.0" fill="#FEFFFF" transform="matrix(1.00, 0.00, -0.00, -1.00, 847.3, 390.1)">.</text><text xml:space="preserve" font-family="Lato-Regular,Lato" font-size="38.0" fill="#FEFFFF" transform="matrix(1.00, 0.00, -0.00, -1.00, 851.0, 390.1)">”</text><text xml:space="preserve" font-family="Lato-Regular,Lato" font-size="38.0" fill="#FEFFFF" transform="matrix(1.00, 0.00, -0.00, -1.00, 864.8, 390.1)"> </text></g></svg>