<?xml version="1.0" encoding="UTF-8" standalone="no"?><svg xmlns="http://www.w3.org/2000/svg" xmlns:xlink="http://www.w3.org/1999/xlink" clip-rule="evenodd" stroke-miterlimit="10" viewBox="0 0 1024 768"><desc>SVG generated by Keynote</desc><defs></defs><g transform="matrix(1.00, 0.00, -0.00, -1.00, 0.0, 768.0)"><path d="M 0.0 768.0 L 1024.0 768.0 L 1024.0 0.0 L 0.0 0.0 Z M 0.0 768.0 " fill="#0D3A4C"></path><text xml:space="preserve" font-family="Lato-Regular,Lato" font-size="80.0" fill="#FEFFFF" transform="matrix(1.00, 0.00, -0.00, -1.00, 319.6, 632.0)">C</text><text xml:space="preserve" font-family="Lato-Regular,Lato" font-size="80.0" fill="#FEFFFF" transform="matrix(1.00, 0.00, -0.00, -1.00, 374.4, 632.0)">h</text><text xml:space="preserve" font-family="Lato-Regular,Lato" font-size="80.0" fill="#FEFFFF" transform="matrix(1.00, 0.00, -0.00, -1.00, 418.9, 632.0)">a</text><text xml:space="preserve" font-family="Lato-Regular,Lato" font-size="80.0" fill="#FEFFFF" transform="matrix(1.00, 0.00, -0.00, -1.00, 459.5, 632.0)">l</text><text xml:space="preserve" font-family="Lato-Regular,Lato" font-size="80.0" fill="#FEFFFF" transform="matrix(1.00, 0.00, -0.00, -1.00, 480.0, 632.0)">l</text><text xml:space="preserve" font-family="Lato-Regular,Lato" font-size="80.0" fill="#FEFFFF" transform="matrix(1.00, 0.00, -0.00, -1.00, 500.4, 632.0)">e</text><text xml:space="preserve" font-family="Lato-Regular,Lato" font-size="80.0" fill="#FEFFFF" transform="matrix(1.00, 0.00, -0.00, -1.00, 542.4, 632.0)">n</text><text xml:space="preserve" font-family="Lato-Regular,Lato" font-size="80.0" fill="#FEFFFF" transform="matrix(1.00, 0.00, -0.00, -1.00, 586.8, 632.0)">g</text><text xml:space="preserve" font-family="Lato-Regular,Lato" font-size="80.0" fill="#FEFFFF" transform="matrix(1.00, 0.00, -0.00, -1.00, 627.7, 632.0)">e</text><text xml:space="preserve" font-family="Lato-Regular,Lato" font-size="80.0" fill="#FEFFFF" transform="matrix(1.00, 0.00, -0.00, -1.00, 669.6, 632.0)">s</text><g><clipPath id="clip0x7fe7544c51c0"><path d="M 174.5 549.5 L 849.0 549.5 L 849.0 81.9 L 174.5 81.9 Z M 174.5 549.5 "></path></clipPath><g clip-path="url(#clip0x7fe7544c51c0)"><path d="M 175.0 549.0 L 511.7 549.0 L 511.7 432.4 L 175.0 432.4 Z M 175.0 549.0 " fill="#0065C0"></path><path d="M 511.7 549.0 L 848.5 549.0 L 848.5 432.4 L 511.7 432.4 Z M 511.7 549.0 " fill="#0065C0"></path></g></g><g><clipPath id="clip0x7fe7544c64a0"><path d="M 174.5 549.5 L 849.0 549.5 L 849.0 81.9 L 174.5 81.9 Z M 174.5 549.5 "></path></clipPath><g clip-path="url(#clip0x7fe7544c64a0)"><g><clipPath id="clip0x7fe7544c6bf0"><path d="M 175.5 433.4 L 511.2 433.4 L 511.2 548.5 L 175.5 548.5 Z M 175.5 433.4 "></path></clipPath><g clip-path="url(#clip0x7fe7544c6bf0)"><text xml:space="preserve" font-family="Lato-Regular,Lato" font-size="28.0" fill="#FEFFFE" transform="matrix(1.00, 0.00, -0.00, -1.00, 310.8, 479.5)">C</text><text xml:space="preserve" font-family="Lato-Regular,Lato" font-size="28.0" fill="#FEFFFE" transform="matrix(1.00, 0.00, -0.00, -1.00, 330.0, 479.5)">o</text><text xml:space="preserve" font-family="Lato-Regular,Lato" font-size="28.0" fill="#FEFFFE" transform="matrix(1.00, 0.00, -0.00, -1.00, 345.6, 479.5)">d</text><text xml:space="preserve" font-family="Lato-Regular,Lato" font-size="28.0" fill="#FEFFFE" transform="matrix(1.00, 0.00, -0.00, -1.00, 361.2, 479.5)">e</text></g></g></g></g><g><clipPath id="clip0x7fe7544c8fd0"><path d="M 174.5 549.5 L 849.0 549.5 L 849.0 81.9 L 174.5 81.9 Z M 174.5 549.5 "></path></clipPath><g clip-path="url(#clip0x7fe7544c8fd0)"><g><clipPath id="clip0x7fe7544c9730"><path d="M 512.2 433.4 L 848.0 433.4 L 848.0 548.5 L 512.2 548.5 Z M 512.2 433.4 "></path></clipPath><g clip-path="url(#clip0x7fe7544c9730)"><text xml:space="preserve" font-family="Lato-Regular,Lato" font-size="28.0" fill="#FEFFFE" transform="matrix(1.00, 0.00, -0.00, -1.00, 599.7, 479.5)">M</text><text xml:space="preserve" font-family="Lato-Regular,Lato" font-size="28.0" fill="#FEFFFE" transform="matrix(1.00, 0.00, -0.00, -1.00, 625.4, 479.5)">a</text><text xml:space="preserve" font-family="Lato-Regular,Lato" font-size="28.0" fill="#FEFFFE" transform="matrix(1.00, 0.00, -0.00, -1.00, 639.6, 479.5)">i</text><text xml:space="preserve" font-family="Lato-Regular,Lato" font-size="28.0" fill="#FEFFFE" transform="matrix(1.00, 0.00, -0.00, -1.00, 646.8, 479.5)">n</text><text xml:space="preserve" font-family="Lato-Regular,Lato" font-size="28.0" fill="#FEFFFE" transform="matrix(1.00, 0.00, -0.00, -1.00, 662.3, 479.5)">t</text><text xml:space="preserve" font-family="Lato-Regular,Lato" font-size="28.0" fill="#FEFFFE" transform="matrix(1.00, 0.00, -0.00, -1.00, 672.8, 479.5)">e</text><text xml:space="preserve" font-family="Lato-Regular,Lato" font-size="28.0" fill="#FEFFFE" transform="matrix(1.00, 0.00, -0.00, -1.00, 687.5, 479.5)">n</text><text xml:space="preserve" font-family="Lato-Regular,Lato" font-size="28.0" fill="#FEFFFE" transform="matrix(1.00, 0.00, -0.00, -1.00, 703.0, 479.5)">a</text><text xml:space="preserve" font-family="Lato-Regular,Lato" font-size="28.0" fill="#FEFFFE" transform="matrix(1.00, 0.00, -0.00, -1.00, 717.2, 479.5)">n</text><text xml:space="preserve" font-family="Lato-Regular,Lato" font-size="28.0" fill="#FEFFFE" transform="matrix(1.00, 0.00, -0.00, -1.00, 732.8, 479.5)">c</text><text xml:space="preserve" font-family="Lato-Regular,Lato" font-size="28.0" fill="#FEFFFE" transform="matrix(1.00, 0.00, -0.00, -1.00, 745.9, 479.5)">e</text></g></g></g></g><g><clipPath id="clip0x7fe7544ce6d0"><path d="M 174.5 549.5 L 849.0 549.5 L 849.0 81.9 L 174.5 81.9 Z M 174.5 549.5 "></path></clipPath><g clip-path="url(#clip0x7fe7544ce6d0)"><g><clipPath id="clip0x7fe7544cee00"><path d="M 175.5 316.2 L 511.2 316.2 L 511.2 431.4 L 175.5 431.4 Z M 175.5 316.2 "></path></clipPath><g clip-path="url(#clip0x7fe7544cee00)"><text xml:space="preserve" font-family="Lato-Regular,Lato" font-size="28.0" fill="#FEFFFE" transform="matrix(1.00, 0.00, -0.00, -1.00, 209.3, 362.3)">L</text><text xml:space="preserve" font-family="Lato-Regular,Lato" font-size="28.0" fill="#FEFFFE" transform="matrix(1.00, 0.00, -0.00, -1.00, 223.2, 362.3)">e</text><text xml:space="preserve" font-family="Lato-Regular,Lato" font-size="28.0" fill="#FEFFFE" transform="matrix(1.00, 0.00, -0.00, -1.00, 237.9, 362.3)">a</text><text xml:space="preserve" font-family="Lato-Regular,Lato" font-size="28.0" fill="#FEFFFE" transform="matrix(1.00, 0.00, -0.00, -1.00, 252.1, 362.3)">r</text><text xml:space="preserve" font-family="Lato-Regular,Lato" font-size="28.0" fill="#FEFFFE" transform="matrix(1.00, 0.00, -0.00, -1.00, 263.3, 362.3)">n</text><text xml:space="preserve" font-family="Lato-Regular,Lato" font-size="28.0" fill="#FEFFFE" transform="matrix(1.00, 0.00, -0.00, -1.00, 278.9, 362.3)">i</text><text xml:space="preserve" font-family="Lato-Regular,Lato" font-size="28.0" fill="#FEFFFE" transform="matrix(1.00, 0.00, -0.00, -1.00, 286.1, 362.3)">n</text><text xml:space="preserve" font-family="Lato-Regular,Lato" font-size="28.0" fill="#FEFFFE" transform="matrix(1.00, 0.00, -0.00, -1.00, 301.6, 362.3)">g</text><text xml:space="preserve" font-family="Lato-Regular,Lato" font-size="28.0" fill="#FEFFFE" transform="matrix(1.00, 0.00, -0.00, -1.00, 316.0, 362.3)"> </text><text xml:space="preserve" font-family="Lato-Regular,Lato" font-size="28.0" fill="#FEFFFE" transform="matrix(1.00, 0.00, -0.00, -1.00, 321.4, 362.3)">t</text><text xml:space="preserve" font-family="Lato-Regular,Lato" font-size="28.0" fill="#FEFFFE" transform="matrix(1.00, 0.00, -0.00, -1.00, 331.8, 362.3)">h</text><text xml:space="preserve" font-family="Lato-Regular,Lato" font-size="28.0" fill="#FEFFFE" transform="matrix(1.00, 0.00, -0.00, -1.00, 347.4, 362.3)">e</text><text xml:space="preserve" font-family="Lato-Regular,Lato" font-size="28.0" fill="#FEFFFE" transform="matrix(1.00, 0.00, -0.00, -1.00, 362.0, 362.3)"> </text><text xml:space="preserve" font-family="Lato-Regular,Lato" font-size="28.0" fill="#FEFFFE" transform="matrix(1.00, 0.00, -0.00, -1.00, 367.4, 362.3)">l</text><text xml:space="preserve" font-family="Lato-Regular,Lato" font-size="28.0" fill="#FEFFFE" transform="matrix(1.00, 0.00, -0.00, -1.00, 374.6, 362.3)">a</text><text xml:space="preserve" font-family="Lato-Regular,Lato" font-size="28.0" fill="#FEFFFE" transform="matrix(1.00, 0.00, -0.00, -1.00, 388.8, 362.3)">n</text><text xml:space="preserve" font-family="Lato-Regular,Lato" font-size="28.0" fill="#FEFFFE" transform="matrix(1.00, 0.00, -0.00, -1.00, 404.4, 362.3)">g</text><text xml:space="preserve" font-family="Lato-Regular,Lato" font-size="28.0" fill="#FEFFFE" transform="matrix(1.00, 0.00, -0.00, -1.00, 418.7, 362.3)">u</text><text xml:space="preserve" font-family="Lato-Regular,Lato" font-size="28.0" fill="#FEFFFE" transform="matrix(1.00, 0.00, -0.00, -1.00, 434.3, 362.3)">a</text><text xml:space="preserve" font-family="Lato-Regular,Lato" font-size="28.0" fill="#FEFFFE" transform="matrix(1.00, 0.00, -0.00, -1.00, 448.5, 362.3)">g</text><text xml:space="preserve" font-family="Lato-Regular,Lato" font-size="28.0" fill="#FEFFFE" transform="matrix(1.00, 0.00, -0.00, -1.00, 462.8, 362.3)">e</text></g></g></g></g><g><clipPath id="clip0x7fe7544d7a80"><path d="M 174.5 549.5 L 849.0 549.5 L 849.0 81.9 L 174.5 81.9 Z M 174.5 549.5 "></path></clipPath><g clip-path="url(#clip0x7fe7544d7a80)"><g><clipPath id="clip0x7fe7544d8210"><path d="M 512.2 316.2 L 848.0 316.2 L 848.0 431.4 L 512.2 431.4 Z M 512.2 316.2 "></path></clipPath><g clip-path="url(#clip0x7fe7544d8210)"><text xml:space="preserve" font-family="Lato-Regular,Lato" font-size="28.0" fill="#FEFFFE" transform="matrix(1.00, 0.00, -0.00, -1.00, 539.5, 362.3)">E</text><text xml:space="preserve" font-family="Lato-Regular,Lato" font-size="28.0" fill="#FEFFFE" transform="matrix(1.00, 0.00, -0.00, -1.00, 555.7, 362.3)">x</text><text xml:space="preserve" font-family="Lato-Regular,Lato" font-size="28.0" fill="#FEFFFE" transform="matrix(1.00, 0.00, -0.00, -1.00, 569.9, 362.3)">p</text><text xml:space="preserve" font-family="Lato-Regular,Lato" font-size="28.0" fill="#FEFFFE" transform="matrix(1.00, 0.00, -0.00, -1.00, 585.3, 362.3)">l</text><text xml:space="preserve" font-family="Lato-Regular,Lato" font-size="28.0" fill="#FEFFFE" transform="matrix(1.00, 0.00, -0.00, -1.00, 592.5, 362.3)">a</text><text xml:space="preserve" font-family="Lato-Regular,Lato" font-size="28.0" fill="#FEFFFE" transform="matrix(1.00, 0.00, -0.00, -1.00, 606.7, 362.3)">i</text><text xml:space="preserve" font-family="Lato-Regular,Lato" font-size="28.0" fill="#FEFFFE" transform="matrix(1.00, 0.00, -0.00, -1.00, 613.8, 362.3)">n</text><text xml:space="preserve" font-family="Lato-Regular,Lato" font-size="28.0" fill="#FEFFFE" transform="matrix(1.00, 0.00, -0.00, -1.00, 629.4, 362.3)">i</text><text xml:space="preserve" font-family="Lato-Regular,Lato" font-size="28.0" fill="#FEFFFE" transform="matrix(1.00, 0.00, -0.00, -1.00, 636.6, 362.3)">n</text><text xml:space="preserve" font-family="Lato-Regular,Lato" font-size="28.0" fill="#FEFFFE" transform="matrix(1.00, 0.00, -0.00, -1.00, 652.1, 362.3)">g</text><text xml:space="preserve" font-family="Lato-Regular,Lato" font-size="28.0" fill="#FEFFFE" transform="matrix(1.00, 0.00, -0.00, -1.00, 666.5, 362.3)"> </text><text xml:space="preserve" font-family="Lato-Regular,Lato" font-size="28.0" fill="#FEFFFE" transform="matrix(1.00, 0.00, -0.00, -1.00, 671.9, 362.3)">t</text><text xml:space="preserve" font-family="Lato-Regular,Lato" font-size="28.0" fill="#FEFFFE" transform="matrix(1.00, 0.00, -0.00, -1.00, 682.3, 362.3)">h</text><text xml:space="preserve" font-family="Lato-Regular,Lato" font-size="28.0" fill="#FEFFFE" transform="matrix(1.00, 0.00, -0.00, -1.00, 697.9, 362.3)">e</text><text xml:space="preserve" font-family="Lato-Regular,Lato" font-size="28.0" fill="#FEFFFE" transform="matrix(1.00, 0.00, -0.00, -1.00, 712.5, 362.3)"> </text><text xml:space="preserve" font-family="Lato-Regular,Lato" font-size="28.0" fill="#FEFFFE" transform="matrix(1.00, 0.00, -0.00, -1.00, 717.9, 362.3)">p</text><text xml:space="preserve" font-family="Lato-Regular,Lato" font-size="28.0" fill="#FEFFFE" transform="matrix(1.00, 0.00, -0.00, -1.00, 733.4, 362.3)">r</text><text xml:space="preserve" font-family="Lato-Regular,Lato" font-size="28.0" fill="#FEFFFE" transform="matrix(1.00, 0.00, -0.00, -1.00, 744.7, 362.3)">o</text><text xml:space="preserve" font-family="Lato-Regular,Lato" font-size="28.0" fill="#FEFFFE" transform="matrix(1.00, 0.00, -0.00, -1.00, 760.3, 362.3)">b</text><text xml:space="preserve" font-family="Lato-Regular,Lato" font-size="28.0" fill="#FEFFFE" transform="matrix(1.00, 0.00, -0.00, -1.00, 775.9, 362.3)">l</text><text xml:space="preserve" font-family="Lato-Regular,Lato" font-size="28.0" fill="#FEFFFE" transform="matrix(1.00, 0.00, -0.00, -1.00, 783.1, 362.3)">e</text><text xml:space="preserve" font-family="Lato-Regular,Lato" font-size="28.0" fill="#FEFFFE" transform="matrix(1.00, 0.00, -0.00, -1.00, 797.7, 362.3)">m</text></g></g></g></g><g><clipPath id="clip0x7fe7544e1470"><path d="M 174.5 549.5 L 849.0 549.5 L 849.0 81.9 L 174.5 81.9 Z M 174.5 549.5 "></path></clipPath><g clip-path="url(#clip0x7fe7544e1470)"><g><clipPath id="clip0x7fe7544e1c20"><path d="M 175.5 199.6 L 511.2 199.6 L 511.2 315.2 L 175.5 315.2 Z M 175.5 199.6 "></path></clipPath><g clip-path="url(#clip0x7fe7544e1c20)"><text xml:space="preserve" font-family="Lato-Regular,Lato" font-size="28.0" fill="#FEFFFE" transform="matrix(1.00, 0.00, -0.00, -1.00, 203.1, 246.2)">F</text><text xml:space="preserve" font-family="Lato-Regular,Lato" font-size="28.0" fill="#FEFFFE" transform="matrix(1.00, 0.00, -0.00, -1.00, 218.1, 246.2)">r</text><text xml:space="preserve" font-family="Lato-Regular,Lato" font-size="28.0" fill="#FEFFFE" transform="matrix(1.00, 0.00, -0.00, -1.00, 228.9, 246.2)">a</text><text xml:space="preserve" font-family="Lato-Regular,Lato" font-size="28.0" fill="#FEFFFE" transform="matrix(1.00, 0.00, -0.00, -1.00, 243.1, 246.2)">m</text><text xml:space="preserve" font-family="Lato-Regular,Lato" font-size="28.0" fill="#FEFFFE" transform="matrix(1.00, 0.00, -0.00, -1.00, 266.1, 246.2)">e</text><text xml:space="preserve" font-family="Lato-Regular,Lato" font-size="28.0" fill="#FEFFFE" transform="matrix(1.00, 0.00, -0.00, -1.00, 280.7, 246.2)">w</text><text xml:space="preserve" font-family="Lato-Regular,Lato" font-size="28.0" fill="#FEFFFE" transform="matrix(1.00, 0.00, -0.00, -1.00, 302.2, 246.2)">o</text><text xml:space="preserve" font-family="Lato-Regular,Lato" font-size="28.0" fill="#FEFFFE" transform="matrix(1.00, 0.00, -0.00, -1.00, 317.7, 246.2)">r</text><text xml:space="preserve" font-family="Lato-Regular,Lato" font-size="28.0" fill="#FEFFFE" transform="matrix(1.00, 0.00, -0.00, -1.00, 329.0, 246.2)">k</text><text xml:space="preserve" font-family="Lato-Regular,Lato" font-size="28.0" fill="#FEFFFE" transform="matrix(1.00, 0.00, -0.00, -1.00, 343.7, 246.2)"> </text><text xml:space="preserve" font-family="Lato-Regular,Lato" font-size="28.0" fill="#FEFFFE" transform="matrix(1.00, 0.00, -0.00, -1.00, 349.1, 246.2)">e</text><text xml:space="preserve" font-family="Lato-Regular,Lato" font-size="28.0" fill="#FEFFFE" transform="matrix(1.00, 0.00, -0.00, -1.00, 362.9, 246.2)">x</text><text xml:space="preserve" font-family="Lato-Regular,Lato" font-size="28.0" fill="#FEFFFE" transform="matrix(1.00, 0.00, -0.00, -1.00, 377.1, 246.2)">p</text><text xml:space="preserve" font-family="Lato-Regular,Lato" font-size="28.0" fill="#FEFFFE" transform="matrix(1.00, 0.00, -0.00, -1.00, 392.5, 246.2)">e</text><text xml:space="preserve" font-family="Lato-Regular,Lato" font-size="28.0" fill="#FEFFFE" transform="matrix(1.00, 0.00, -0.00, -1.00, 407.2, 246.2)">r</text><text xml:space="preserve" font-family="Lato-Regular,Lato" font-size="28.0" fill="#FEFFFE" transform="matrix(1.00, 0.00, -0.00, -1.00, 418.5, 246.2)">i</text><text xml:space="preserve" font-family="Lato-Regular,Lato" font-size="28.0" fill="#FEFFFE" transform="matrix(1.00, 0.00, -0.00, -1.00, 425.6, 246.2)">e</text><text xml:space="preserve" font-family="Lato-Regular,Lato" font-size="28.0" fill="#FEFFFE" transform="matrix(1.00, 0.00, -0.00, -1.00, 440.3, 246.2)">n</text><text xml:space="preserve" font-family="Lato-Regular,Lato" font-size="28.0" fill="#FEFFFE" transform="matrix(1.00, 0.00, -0.00, -1.00, 455.9, 246.2)">c</text><text xml:space="preserve" font-family="Lato-Regular,Lato" font-size="28.0" fill="#FEFFFE" transform="matrix(1.00, 0.00, -0.00, -1.00, 468.9, 246.2)">e</text></g></g></g></g><g><clipPath id="clip0x7fe7546080e0"><path d="M 174.5 549.5 L 849.0 549.5 L 849.0 81.9 L 174.5 81.9 Z M 174.5 549.5 "></path></clipPath><g clip-path="url(#clip0x7fe7546080e0)"><g><clipPath id="clip0x7fe754608870"><path d="M 512.2 199.6 L 848.0 199.6 L 848.0 315.2 L 512.2 315.2 Z M 512.2 199.6 "></path></clipPath><g clip-path="url(#clip0x7fe754608870)"><text xml:space="preserve" font-family="Lato-Regular,Lato" font-size="28.0" fill="#FEFFFE" transform="matrix(1.00, 0.00, -0.00, -1.00, 540.6, 246.2)">E</text><text xml:space="preserve" font-family="Lato-Regular,Lato" font-size="28.0" fill="#FEFFFE" transform="matrix(1.00, 0.00, -0.00, -1.00, 556.9, 246.2)">x</text><text xml:space="preserve" font-family="Lato-Regular,Lato" font-size="28.0" fill="#FEFFFE" transform="matrix(1.00, 0.00, -0.00, -1.00, 571.0, 246.2)">p</text><text xml:space="preserve" font-family="Lato-Regular,Lato" font-size="28.0" fill="#FEFFFE" transform="matrix(1.00, 0.00, -0.00, -1.00, 586.5, 246.2)">l</text><text xml:space="preserve" font-family="Lato-Regular,Lato" font-size="28.0" fill="#FEFFFE" transform="matrix(1.00, 0.00, -0.00, -1.00, 593.6, 246.2)">a</text><text xml:space="preserve" font-family="Lato-Regular,Lato" font-size="28.0" fill="#FEFFFE" transform="matrix(1.00, 0.00, -0.00, -1.00, 607.8, 246.2)">i</text><text xml:space="preserve" font-family="Lato-Regular,Lato" font-size="28.0" fill="#FEFFFE" transform="matrix(1.00, 0.00, -0.00, -1.00, 615.0, 246.2)">n</text><text xml:space="preserve" font-family="Lato-Regular,Lato" font-size="28.0" fill="#FEFFFE" transform="matrix(1.00, 0.00, -0.00, -1.00, 630.6, 246.2)">i</text><text xml:space="preserve" font-family="Lato-Regular,Lato" font-size="28.0" fill="#FEFFFE" transform="matrix(1.00, 0.00, -0.00, -1.00, 637.7, 246.2)">n</text><text xml:space="preserve" font-family="Lato-Regular,Lato" font-size="28.0" fill="#FEFFFE" transform="matrix(1.00, 0.00, -0.00, -1.00, 653.3, 246.2)">g</text><text xml:space="preserve" font-family="Lato-Regular,Lato" font-size="28.0" fill="#FEFFFE" transform="matrix(1.00, 0.00, -0.00, -1.00, 667.6, 246.2)"> </text><text xml:space="preserve" font-family="Lato-Regular,Lato" font-size="28.0" fill="#FEFFFE" transform="matrix(1.00, 0.00, -0.00, -1.00, 673.0, 246.2)">t</text><text xml:space="preserve" font-family="Lato-Regular,Lato" font-size="28.0" fill="#FEFFFE" transform="matrix(1.00, 0.00, -0.00, -1.00, 683.5, 246.2)">h</text><text xml:space="preserve" font-family="Lato-Regular,Lato" font-size="28.0" fill="#FEFFFE" transform="matrix(1.00, 0.00, -0.00, -1.00, 699.0, 246.2)">e</text><text xml:space="preserve" font-family="Lato-Regular,Lato" font-size="28.0" fill="#FEFFFE" transform="matrix(1.00, 0.00, -0.00, -1.00, 713.7, 246.2)"> </text><text xml:space="preserve" font-family="Lato-Regular,Lato" font-size="28.0" fill="#FEFFFE" transform="matrix(1.00, 0.00, -0.00, -1.00, 719.1, 246.2)">t</text><text xml:space="preserve" font-family="Lato-Regular,Lato" font-size="28.0" fill="#FEFFFE" transform="matrix(1.00, 0.00, -0.00, -1.00, 729.5, 246.2)">h</text><text xml:space="preserve" font-family="Lato-Regular,Lato" font-size="28.0" fill="#FEFFFE" transform="matrix(1.00, 0.00, -0.00, -1.00, 745.1, 246.2)">i</text><text xml:space="preserve" font-family="Lato-Regular,Lato" font-size="28.0" fill="#FEFFFE" transform="matrix(1.00, 0.00, -0.00, -1.00, 752.3, 246.2)">n</text><text xml:space="preserve" font-family="Lato-Regular,Lato" font-size="28.0" fill="#FEFFFE" transform="matrix(1.00, 0.00, -0.00, -1.00, 767.9, 246.2)">k</text><text xml:space="preserve" font-family="Lato-Regular,Lato" font-size="28.0" fill="#FEFFFE" transform="matrix(1.00, 0.00, -0.00, -1.00, 782.5, 246.2)">i</text><text xml:space="preserve" font-family="Lato-Regular,Lato" font-size="28.0" fill="#FEFFFE" transform="matrix(1.00, 0.00, -0.00, -1.00, 789.7, 246.2)">n</text><text xml:space="preserve" font-family="Lato-Regular,Lato" font-size="28.0" fill="#FEFFFE" transform="matrix(1.00, 0.00, -0.00, -1.00, 805.3, 246.2)">g</text></g></g></g></g><g><clipPath id="clip0x7fe7546120a0"><path d="M 174.5 549.5 L 849.0 549.5 L 849.0 81.9 L 174.5 81.9 Z M 174.5 549.5 "></path></clipPath><g clip-path="url(#clip0x7fe7546120a0)"><g><clipPath id="clip0x7fe7546128a0"><path d="M 175.5 82.9 L 511.2 82.9 L 511.2 198.6 L 175.5 198.6 Z M 175.5 82.9 "></path></clipPath><g clip-path="url(#clip0x7fe7546128a0)"><text xml:space="preserve" font-family="Lato-Regular,Lato" font-size="28.0" fill="#FEFFFE" transform="matrix(1.00, 0.00, -0.00, -1.00, 194.1, 129.6)">E</text><text xml:space="preserve" font-family="Lato-Regular,Lato" font-size="28.0" fill="#FEFFFE" transform="matrix(1.00, 0.00, -0.00, -1.00, 210.4, 129.6)">x</text><text xml:space="preserve" font-family="Lato-Regular,Lato" font-size="28.0" fill="#FEFFFE" transform="matrix(1.00, 0.00, -0.00, -1.00, 224.5, 129.6)">p</text><text xml:space="preserve" font-family="Lato-Regular,Lato" font-size="28.0" fill="#FEFFFE" transform="matrix(1.00, 0.00, -0.00, -1.00, 240.0, 129.6)">l</text><text xml:space="preserve" font-family="Lato-Regular,Lato" font-size="28.0" fill="#FEFFFE" transform="matrix(1.00, 0.00, -0.00, -1.00, 247.1, 129.6)">o</text><text xml:space="preserve" font-family="Lato-Regular,Lato" font-size="28.0" fill="#FEFFFE" transform="matrix(1.00, 0.00, -0.00, -1.00, 262.7, 129.6)">r</text><text xml:space="preserve" font-family="Lato-Regular,Lato" font-size="28.0" fill="#FEFFFE" transform="matrix(1.00, 0.00, -0.00, -1.00, 274.0, 129.6)">i</text><text xml:space="preserve" font-family="Lato-Regular,Lato" font-size="28.0" fill="#FEFFFE" transform="matrix(1.00, 0.00, -0.00, -1.00, 281.2, 129.6)">n</text><text xml:space="preserve" font-family="Lato-Regular,Lato" font-size="28.0" fill="#FEFFFE" transform="matrix(1.00, 0.00, -0.00, -1.00, 296.7, 129.6)">g</text><text xml:space="preserve" font-family="Lato-Regular,Lato" font-size="28.0" fill="#FEFFFE" transform="matrix(1.00, 0.00, -0.00, -1.00, 311.0, 129.6)"> </text><text xml:space="preserve" font-family="Lato-Regular,Lato" font-size="28.0" fill="#FEFFFE" transform="matrix(1.00, 0.00, -0.00, -1.00, 316.4, 129.6)">t</text><text xml:space="preserve" font-family="Lato-Regular,Lato" font-size="28.0" fill="#FEFFFE" transform="matrix(1.00, 0.00, -0.00, -1.00, 326.9, 129.6)">h</text><text xml:space="preserve" font-family="Lato-Regular,Lato" font-size="28.0" fill="#FEFFFE" transform="matrix(1.00, 0.00, -0.00, -1.00, 342.5, 129.6)">e</text><text xml:space="preserve" font-family="Lato-Regular,Lato" font-size="28.0" fill="#FEFFFE" transform="matrix(1.00, 0.00, -0.00, -1.00, 357.1, 129.6)"> </text><text xml:space="preserve" font-family="Lato-Regular,Lato" font-size="28.0" fill="#FEFFFE" transform="matrix(1.00, 0.00, -0.00, -1.00, 362.5, 129.6)">e</text><text xml:space="preserve" font-family="Lato-Regular,Lato" font-size="28.0" fill="#FEFFFE" transform="matrix(1.00, 0.00, -0.00, -1.00, 377.2, 129.6)">c</text><text xml:space="preserve" font-family="Lato-Regular,Lato" font-size="28.0" fill="#FEFFFE" transform="matrix(1.00, 0.00, -0.00, -1.00, 390.3, 129.6)">o</text><text xml:space="preserve" font-family="Lato-Regular,Lato" font-size="28.0" fill="#FEFFFE" transform="matrix(1.00, 0.00, -0.00, -1.00, 405.8, 129.6)">s</text><text xml:space="preserve" font-family="Lato-Regular,Lato" font-size="28.0" fill="#FEFFFE" transform="matrix(1.00, 0.00, -0.00, -1.00, 418.0, 129.6)">y</text><text xml:space="preserve" font-family="Lato-Regular,Lato" font-size="28.0" fill="#FEFFFE" transform="matrix(1.00, 0.00, -0.00, -1.00, 432.3, 129.6)">s</text><text xml:space="preserve" font-family="Lato-Regular,Lato" font-size="28.0" fill="#FEFFFE" transform="matrix(1.00, 0.00, -0.00, -1.00, 444.5, 129.6)">t</text><text xml:space="preserve" font-family="Lato-Regular,Lato" font-size="28.0" fill="#FEFFFE" transform="matrix(1.00, 0.00, -0.00, -1.00, 454.9, 129.6)">e</text><text xml:space="preserve" font-family="Lato-Regular,Lato" font-size="28.0" fill="#FEFFFE" transform="matrix(1.00, 0.00, -0.00, -1.00, 469.6, 129.6)">m</text></g></g></g></g><g><clipPath id="clip0x7fe75461c080"><path d="M 174.5 549.5 L 849.0 549.5 L 849.0 81.9 L 174.5 81.9 Z M 174.5 549.5 "></path></clipPath><g clip-path="url(#clip0x7fe75461c080)"><g><clipPath id="clip0x7fe75461c7b0"><path d="M 512.2 82.9 L 848.0 82.9 L 848.0 198.6 L 512.2 198.6 Z M 512.2 82.9 "></path></clipPath><g clip-path="url(#clip0x7fe75461c7b0)"><text xml:space="preserve" font-family="Lato-Regular,Lato" font-size="28.0" fill="#FEFFFE" transform="matrix(1.00, 0.00, -0.00, -1.00, 590.3, 129.6)">R</text><text xml:space="preserve" font-family="Lato-Regular,Lato" font-size="28.0" fill="#FEFFFE" transform="matrix(1.00, 0.00, -0.00, -1.00, 608.4, 129.6)">e</text><text xml:space="preserve" font-family="Lato-Regular,Lato" font-size="28.0" fill="#FEFFFE" transform="matrix(1.00, 0.00, -0.00, -1.00, 623.1, 129.6)">a</text><text xml:space="preserve" font-family="Lato-Regular,Lato" font-size="28.0" fill="#FEFFFE" transform="matrix(1.00, 0.00, -0.00, -1.00, 637.2, 129.6)">d</text><text xml:space="preserve" font-family="Lato-Regular,Lato" font-size="28.0" fill="#FEFFFE" transform="matrix(1.00, 0.00, -0.00, -1.00, 652.9, 129.6)">a</text><text xml:space="preserve" font-family="Lato-Regular,Lato" font-size="28.0" fill="#FEFFFE" transform="matrix(1.00, 0.00, -0.00, -1.00, 667.1, 129.6)">b</text><text xml:space="preserve" font-family="Lato-Regular,Lato" font-size="28.0" fill="#FEFFFE" transform="matrix(1.00, 0.00, -0.00, -1.00, 682.7, 129.6)">l</text><text xml:space="preserve" font-family="Lato-Regular,Lato" font-size="28.0" fill="#FEFFFE" transform="matrix(1.00, 0.00, -0.00, -1.00, 689.9, 129.6)">e</text><text xml:space="preserve" font-family="Lato-Regular,Lato" font-size="28.0" fill="#FEFFFE" transform="matrix(1.00, 0.00, -0.00, -1.00, 704.6, 129.6)"> </text><text xml:space="preserve" font-family="Lato-Regular,Lato" font-size="28.0" fill="#FEFFFE" transform="matrix(1.00, 0.00, -0.00, -1.00, 710.0, 129.6)">t</text><text xml:space="preserve" font-family="Lato-Regular,Lato" font-size="28.0" fill="#FEFFFE" transform="matrix(1.00, 0.00, -0.00, -1.00, 720.4, 129.6)">e</text><text xml:space="preserve" font-family="Lato-Regular,Lato" font-size="28.0" fill="#FEFFFE" transform="matrix(1.00, 0.00, -0.00, -1.00, 735.1, 129.6)">s</text><text xml:space="preserve" font-family="Lato-Regular,Lato" font-size="28.0" fill="#FEFFFE" transform="matrix(1.00, 0.00, -0.00, -1.00, 747.3, 129.6)">t</text><text xml:space="preserve" font-family="Lato-Regular,Lato" font-size="28.0" fill="#FEFFFE" transform="matrix(1.00, 0.00, -0.00, -1.00, 757.7, 129.6)">s</text></g></g></g></g><g><clipPath id="clip0x7fe754622960"><path d="M 174.5 549.5 L 849.0 549.5 L 849.0 81.9 L 174.5 81.9 Z M 174.5 549.5 "></path></clipPath><g clip-path="url(#clip0x7fe754622960)"><path d="M 338.7 1.5 L 338.7 118.6 " fill="none" stroke="#D6D6D6" stroke-width="1.00" transform="matrix(1.00, 0.00, 0.00, -1.00, 173.0, 551.0)"></path><path d="M 338.7 118.6 L 338.7 469.1 " fill="none" stroke="#D6D6D6" stroke-width="1.00" transform="matrix(1.00, 0.00, 0.00, -1.00, 173.0, 551.0)"></path><path d="M 1.5 235.3 L 676.0 235.3 " fill="none" stroke="#D6D6D6" stroke-width="1.00" transform="matrix(1.00, 0.00, 0.00, -1.00, 173.0, 551.0)"></path><path d="M 1.5 351.9 L 676.0 351.9 " fill="none" stroke="#D6D6D6" stroke-width="1.00" transform="matrix(1.00, 0.00, 0.00, -1.00, 173.0, 551.0)"></path><path d="M 1.5 118.6 L 676.0 118.6 " fill="none" stroke="#D6D6D6" stroke-width="2.00" transform="matrix(1.00, 0.00, 0.00, -1.00, 173.0, 551.0)"></path><path d="M 2.0 1.5 L 2.0 118.6 " fill="none" stroke="#D5D5D5" stroke-width="1.00" transform="matrix(1.00, 0.00, 0.00, -1.00, 173.0, 551.0)"></path><path d="M 2.0 118.6 L 2.0 469.1 " fill="none" stroke="#D5D5D5" stroke-width="1.00" transform="matrix(1.00, 0.00, 0.00, -1.00, 173.0, 551.0)"></path><path d="M 675.5 1.5 L 675.5 118.6 " fill="none" stroke="#D5D5D5" stroke-width="1.00" transform="matrix(1.00, 0.00, 0.00, -1.00, 173.0, 551.0)"></path><path d="M 675.5 118.6 L 675.5 469.1 " fill="none" stroke="#D5D5D5" stroke-width="1.00" transform="matrix(1.00, 0.00, 0.00, -1.00, 173.0, 551.0)"></path><path d="M 1.5 2.0 L 676.0 2.0 " fill="none" stroke="#D5D5D5" stroke-width="1.00" transform="matrix(1.00, 0.00, 0.00, -1.00, 173.0, 551.0)"></path><path d="M 1.5 468.6 L 676.0 468.6 " fill="none" stroke="#D5D5D5" stroke-width="1.00" transform="matrix(1.00, 0.00, 0.00, -1.00, 173.0, 551.0)"></path></g></g></g></svg>