<?xml version="1.0" encoding="UTF-8" standalone="no"?><svg xmlns="http://www.w3.org/2000/svg" xmlns:xlink="http://www.w3.org/1999/xlink" clip-rule="evenodd" stroke-miterlimit="10" viewBox="0 0 452 26"><desc>SVG generated by Keynote</desc><defs></defs><g transform="matrix(1.00, 0.00, -0.00, -1.00, 0.0, 26.0)"><text xml:space="preserve" font-family="Courier,Courier" font-size="26.0" fill="#FEFFFF" transform="matrix(1.00, 0.00, -0.00, -1.00, 2.3, 6.6)">A</text><text xml:space="preserve" font-family="Courier,Courier" font-size="26.0" fill="#FEFFFF" transform="matrix(1.00, 0.00, -0.00, -1.00, 17.9, 6.6)">p</text><text xml:space="preserve" font-family="Courier,Courier" font-size="26.0" fill="#FEFFFF" transform="matrix(1.00, 0.00, -0.00, -1.00, 33.5, 6.6)">p</text><text xml:space="preserve" font-family="Courier,Courier" font-size="26.0" fill="#FEFFFF" transform="matrix(1.00, 0.00, -0.00, -1.00, 49.1, 6.6)">l</text><text xml:space="preserve" font-family="Courier,Courier" font-size="26.0" fill="#FEFFFF" transform="matrix(1.00, 0.00, -0.00, -1.00, 64.7, 6.6)">i</text><text xml:space="preserve" font-family="Courier,Courier" font-size="26.0" fill="#FEFFFF" transform="matrix(1.00, 0.00, -0.00, -1.00, 80.3, 6.6)">c</text><text xml:space="preserve" font-family="Courier,Courier" font-size="26.0" fill="#FEFFFF" transform="matrix(1.00, 0.00, -0.00, -1.00, 95.9, 6.6)">a</text><text xml:space="preserve" font-family="Courier,Courier" font-size="26.0" fill="#FEFFFF" transform="matrix(1.00, 0.00, -0.00, -1.00, 111.5, 6.6)">n</text><text xml:space="preserve" font-family="Courier,Courier" font-size="26.0" fill="#FEFFFF" transform="matrix(1.00, 0.00, -0.00, -1.00, 127.1, 6.6)">t</text><text xml:space="preserve" font-family="Courier,Courier" font-size="26.0" fill="#FEFFFF" transform="matrix(1.00, 0.00, -0.00, -1.00, 142.7, 6.6)">(</text><text xml:space="preserve" font-family="Courier,Courier" font-size="26.0" fill="#FEFFFF" transform="matrix(1.00, 0.00, -0.00, -1.00, 158.3, 6.6)">0</text><text xml:space="preserve" font-family="Courier,Courier" font-size="26.0" fill="#FEFFFF" transform="matrix(1.00, 0.00, -0.00, -1.00, 173.9, 6.6)">3</text><text xml:space="preserve" font-family="Courier,Courier" font-size="26.0" fill="#FEFFFF" transform="matrix(1.00, 0.00, -0.00, -1.00, 189.5, 6.6)">2</text><text xml:space="preserve" font-family="Courier,Courier" font-size="26.0" fill="#FEFFFF" transform="matrix(1.00, 0.00, -0.00, -1.00, 205.2, 6.6)">7</text><text xml:space="preserve" font-family="Courier,Courier" font-size="26.0" fill="#FEFFFF" transform="matrix(1.00, 0.00, -0.00, -1.00, 220.8, 6.6)">3</text><text xml:space="preserve" font-family="Courier,Courier" font-size="26.0" fill="#FEFFFF" transform="matrix(1.00, 0.00, -0.00, -1.00, 236.4, 6.6)">4</text><text xml:space="preserve" font-family="Courier,Courier" font-size="26.0" fill="#FEFFFF" transform="matrix(1.00, 0.00, -0.00, -1.00, 252.0, 6.6)">9</text><text xml:space="preserve" font-family="Courier,Courier" font-size="26.0" fill="#FEFFFF" transform="matrix(1.00, 0.00, -0.00, -1.00, 267.6, 6.6)">9</text><text xml:space="preserve" font-family="Courier,Courier" font-size="26.0" fill="#FEFFFF" transform="matrix(1.00, 0.00, -0.00, -1.00, 283.2, 6.6)">3</text><text xml:space="preserve" font-family="Courier,Courier" font-size="26.0" fill="#FEFFFF" transform="matrix(1.00, 0.00, -0.00, -1.00, 298.8, 6.6)">5</text><text xml:space="preserve" font-family="Courier,Courier" font-size="26.0" fill="#FEFFFF" transform="matrix(1.00, 0.00, -0.00, -1.00, 314.4, 6.6)">,</text><text xml:space="preserve" font-family="Courier,Courier" font-size="26.0" fill="#FEFFFF" transform="matrix(1.00, 0.00, -0.00, -1.00, 330.0, 6.6)">p</text><text xml:space="preserve" font-family="Courier,Courier" font-size="26.0" fill="#FEFFFF" transform="matrix(1.00, 0.00, -0.00, -1.00, 345.6, 6.6)">&amp;</text><text xml:space="preserve" font-family="Courier,Courier" font-size="26.0" fill="#FEFFFF" transform="matrix(1.00, 0.00, -0.00, -1.00, 361.1, 6.6)">,</text><text xml:space="preserve" font-family="Courier,Courier" font-size="26.0" fill="#FEFFFF" transform="matrix(1.00, 0.00, -0.00, -1.00, 376.7, 6.6)">N</text><text xml:space="preserve" font-family="Courier,Courier" font-size="26.0" fill="#FEFFFF" transform="matrix(1.00, 0.00, -0.00, -1.00, 392.4, 6.6)">o</text><text xml:space="preserve" font-family="Courier,Courier" font-size="26.0" fill="#FEFFFF" transform="matrix(1.00, 0.00, -0.00, -1.00, 408.0, 6.6)">n</text><text xml:space="preserve" font-family="Courier,Courier" font-size="26.0" fill="#FEFFFF" transform="matrix(1.00, 0.00, -0.00, -1.00, 423.6, 6.6)">e</text><text xml:space="preserve" font-family="Courier,Courier" font-size="26.0" fill="#FEFFFF" transform="matrix(1.00, 0.00, -0.00, -1.00, 439.2, 6.6)">)</text></g></svg>