<?xml version="1.0" encoding="UTF-8" standalone="no"?><svg xmlns="http://www.w3.org/2000/svg" xmlns:xlink="http://www.w3.org/1999/xlink" clip-rule="evenodd" stroke-miterlimit="10" viewBox="0 0 1024 768"><desc>SVG generated by Keynote</desc><defs></defs><g transform="matrix(1.00, 0.00, -0.00, -1.00, 0.0, 768.0)"><path d="M 0.0 768.0 L 1024.0 768.0 L 1024.0 0.0 L 0.0 0.0 Z M 0.0 768.0 " fill="#0D3A4C"></path><text xml:space="preserve" font-family="Lato-Regular,Lato" font-size="80.0" fill="#FEFFFF" transform="matrix(1.00, 0.00, -0.00, -1.00, 89.4, 632.0)">F</text><text xml:space="preserve" font-family="Lato-Regular,Lato" font-size="80.0" fill="#FEFFFF" transform="matrix(1.00, 0.00, -0.00, -1.00, 131.9, 632.0)">o</text><text xml:space="preserve" font-family="Lato-Regular,Lato" font-size="80.0" fill="#FEFFFF" transform="matrix(1.00, 0.00, -0.00, -1.00, 176.4, 632.0)">c</text><text xml:space="preserve" font-family="Lato-Regular,Lato" font-size="80.0" fill="#FEFFFF" transform="matrix(1.00, 0.00, -0.00, -1.00, 213.8, 632.0)">u</text><text xml:space="preserve" font-family="Lato-Regular,Lato" font-size="80.0" fill="#FEFFFF" transform="matrix(1.00, 0.00, -0.00, -1.00, 258.2, 632.0)">s</text><text xml:space="preserve" font-family="Lato-Regular,Lato" font-size="80.0" fill="#FEFFFF" transform="matrix(1.00, 0.00, -0.00, -1.00, 293.0, 632.0)"> </text><text xml:space="preserve" font-family="Lato-Regular,Lato" font-size="80.0" fill="#FEFFFF" transform="matrix(1.00, 0.00, -0.00, -1.00, 308.4, 632.0)">o</text><text xml:space="preserve" font-family="Lato-Regular,Lato" font-size="80.0" fill="#FEFFFF" transform="matrix(1.00, 0.00, -0.00, -1.00, 352.9, 632.0)">n</text><text xml:space="preserve" font-family="Lato-Regular,Lato" font-size="80.0" fill="#FEFFFF" transform="matrix(1.00, 0.00, -0.00, -1.00, 397.4, 632.0)"> </text><text xml:space="preserve" font-family="Lato-Regular,Lato" font-size="80.0" fill="#FEFFFF" transform="matrix(1.00, 0.00, -0.00, -1.00, 412.8, 632.0)">T</text><text xml:space="preserve" font-family="Lato-Regular,Lato" font-size="80.0" fill="#FEFFFF" transform="matrix(1.00, 0.00, -0.00, -1.00, 454.4, 632.0)">w</text><text xml:space="preserve" font-family="Lato-Regular,Lato" font-size="80.0" fill="#FEFFFF" transform="matrix(1.00, 0.00, -0.00, -1.00, 515.7, 632.0)">o</text><text xml:space="preserve" font-family="Lato-Regular,Lato" font-size="80.0" fill="#FEFFFF" transform="matrix(1.00, 0.00, -0.00, -1.00, 560.2, 632.0)"> </text><text xml:space="preserve" font-family="Lato-Regular,Lato" font-size="80.0" fill="#FEFFFF" transform="matrix(1.00, 0.00, -0.00, -1.00, 575.6, 632.0)">Q</text><text xml:space="preserve" font-family="Lato-Regular,Lato" font-size="80.0" fill="#FEFFFF" transform="matrix(1.00, 0.00, -0.00, -1.00, 639.4, 632.0)">u</text><text xml:space="preserve" font-family="Lato-Regular,Lato" font-size="80.0" fill="#FEFFFF" transform="matrix(1.00, 0.00, -0.00, -1.00, 683.9, 632.0)">e</text><text xml:space="preserve" font-family="Lato-Regular,Lato" font-size="80.0" fill="#FEFFFF" transform="matrix(1.00, 0.00, -0.00, -1.00, 725.8, 632.0)">s</text><text xml:space="preserve" font-family="Lato-Regular,Lato" font-size="80.0" fill="#FEFFFF" transform="matrix(1.00, 0.00, -0.00, -1.00, 760.6, 632.0)">t</text><text xml:space="preserve" font-family="Lato-Regular,Lato" font-size="80.0" fill="#FEFFFF" transform="matrix(1.00, 0.00, -0.00, -1.00, 790.4, 632.0)">i</text><text xml:space="preserve" font-family="Lato-Regular,Lato" font-size="80.0" fill="#FEFFFF" transform="matrix(1.00, 0.00, -0.00, -1.00, 810.9, 632.0)">o</text><text xml:space="preserve" font-family="Lato-Regular,Lato" font-size="80.0" fill="#FEFFFF" transform="matrix(1.00, 0.00, -0.00, -1.00, 855.4, 632.0)">n</text><text xml:space="preserve" font-family="Lato-Regular,Lato" font-size="80.0" fill="#FEFFFF" transform="matrix(1.00, 0.00, -0.00, -1.00, 899.8, 632.0)">s</text><text xml:space="preserve" font-family="Lato-Regular,Lato" font-size="42.0" fill="#FEFFFF" transform="matrix(1.00, 0.00, -0.00, -1.00, 240.4, 366.9)">A</text><text xml:space="preserve" font-family="Lato-Regular,Lato" font-size="42.0" fill="#FEFFFF" transform="matrix(1.00, 0.00, -0.00, -1.00, 269.0, 366.9)">r</text><text xml:space="preserve" font-family="Lato-Regular,Lato" font-size="42.0" fill="#FEFFFF" transform="matrix(1.00, 0.00, -0.00, -1.00, 285.9, 366.9)">e</text><text xml:space="preserve" font-family="Lato-Regular,Lato" font-size="42.0" fill="#FEFFFF" transform="matrix(1.00, 0.00, -0.00, -1.00, 307.9, 366.9)"> </text><text xml:space="preserve" font-family="Lato-Regular,Lato" font-size="42.0" fill="#FEFFFF" transform="matrix(1.00, 0.00, -0.00, -1.00, 316.0, 366.9)">w</text><text xml:space="preserve" font-family="Lato-Regular,Lato" font-size="42.0" fill="#FEFFFF" transform="matrix(1.00, 0.00, -0.00, -1.00, 348.2, 366.9)">e</text><text xml:space="preserve" font-family="Lato-Regular,Lato" font-size="42.0" fill="#FEFFFF" transform="matrix(1.00, 0.00, -0.00, -1.00, 370.2, 366.9)"> </text><text xml:space="preserve" font-family="Lato-Regular,Lato" font-size="42.0" fill="#FEFFFF" transform="matrix(1.00, 0.00, -0.00, -1.00, 378.3, 366.9)">p</text><text xml:space="preserve" font-family="Lato-Regular,Lato" font-size="42.0" fill="#FEFFFF" transform="matrix(1.00, 0.00, -0.00, -1.00, 401.5, 366.9)">r</text><text xml:space="preserve" font-family="Lato-Regular,Lato" font-size="42.0" fill="#FEFFFF" transform="matrix(1.00, 0.00, -0.00, -1.00, 418.4, 366.9)">o</text><text xml:space="preserve" font-family="Lato-Regular,Lato" font-size="42.0" fill="#FEFFFF" transform="matrix(1.00, 0.00, -0.00, -1.00, 441.8, 366.9)">d</text><text xml:space="preserve" font-family="Lato-Regular,Lato" font-size="42.0" fill="#FEFFFF" transform="matrix(1.00, 0.00, -0.00, -1.00, 465.3, 366.9)">u</text><text xml:space="preserve" font-family="Lato-Regular,Lato" font-size="42.0" fill="#FEFFFF" transform="matrix(1.00, 0.00, -0.00, -1.00, 488.6, 366.9)">c</text><text xml:space="preserve" font-family="Lato-Regular,Lato" font-size="42.0" fill="#FEFFFF" transform="matrix(1.00, 0.00, -0.00, -1.00, 508.2, 366.9)">i</text><text xml:space="preserve" font-family="Lato-Regular,Lato" font-size="42.0" fill="#FEFFFF" transform="matrix(1.00, 0.00, -0.00, -1.00, 519.0, 366.9)">n</text><text xml:space="preserve" font-family="Lato-Regular,Lato" font-size="42.0" fill="#FEFFFF" transform="matrix(1.00, 0.00, -0.00, -1.00, 542.3, 366.9)">g</text><text xml:space="preserve" font-family="Lato-Regular,Lato" font-size="42.0" fill="#FEFFFF" transform="matrix(1.00, 0.00, -0.00, -1.00, 563.8, 366.9)"> </text><text xml:space="preserve" font-family="Lato-Regular,Lato" font-size="42.0" fill="#FEFFFF" transform="matrix(1.00, 0.00, -0.00, -1.00, 571.9, 366.9)">g</text><text xml:space="preserve" font-family="Lato-Regular,Lato" font-size="42.0" fill="#FEFFFF" transform="matrix(1.00, 0.00, -0.00, -1.00, 593.4, 366.9)">o</text><text xml:space="preserve" font-family="Lato-Regular,Lato" font-size="42.0" fill="#FEFFFF" transform="matrix(1.00, 0.00, -0.00, -1.00, 616.7, 366.9)">o</text><text xml:space="preserve" font-family="Lato-Regular,Lato" font-size="42.0" fill="#FEFFFF" transform="matrix(1.00, 0.00, -0.00, -1.00, 640.1, 366.9)">d</text><text xml:space="preserve" font-family="Lato-Regular,Lato" font-size="42.0" fill="#FEFFFF" transform="matrix(1.00, 0.00, -0.00, -1.00, 663.5, 366.9)"> </text><text xml:space="preserve" font-family="Lato-Regular,Lato" font-size="42.0" fill="#FEFFFF" transform="matrix(1.00, 0.00, -0.00, -1.00, 671.6, 366.9)">S</text><text xml:space="preserve" font-family="Lato-Regular,Lato" font-size="42.0" fill="#FEFFFF" transform="matrix(1.00, 0.00, -0.00, -1.00, 693.9, 366.9)">c</text><text xml:space="preserve" font-family="Lato-Regular,Lato" font-size="42.0" fill="#FEFFFF" transform="matrix(1.00, 0.00, -0.00, -1.00, 713.5, 366.9)">a</text><text xml:space="preserve" font-family="Lato-Regular,Lato" font-size="42.0" fill="#FEFFFF" transform="matrix(1.00, 0.00, -0.00, -1.00, 734.8, 366.9)">l</text><text xml:space="preserve" font-family="Lato-Regular,Lato" font-size="42.0" fill="#FEFFFF" transform="matrix(1.00, 0.00, -0.00, -1.00, 745.6, 366.9)">a</text><text xml:space="preserve" font-family="Lato-Regular,Lato" font-size="42.0" fill="#FEFFFF" transform="matrix(1.00, 0.00, -0.00, -1.00, 766.9, 366.9)">?</text><text xml:space="preserve" font-family="LucidaGrande,Lucida Grande" font-size="42.0" fill="#FEFFFF" transform="matrix(1.00, 0.00, -0.00, -1.00, 783.6, 366.9)"> </text><text xml:space="preserve" font-family="Lato-Light,Lato" font-size="34.0" fill="#FEFFFF" transform="matrix(1.00, 0.00, -0.00, -1.00, 231.5, 324.2)">…</text><text xml:space="preserve" font-family="Lato-Light,Lato" font-size="34.0" fill="#FEFFFF" transform="matrix(1.00, 0.00, -0.00, -1.00, 254.9, 324.2)">m</text><text xml:space="preserve" font-family="Lato-Light,Lato" font-size="34.0" fill="#FEFFFF" transform="matrix(1.00, 0.00, -0.00, -1.00, 281.9, 324.2)">a</text><text xml:space="preserve" font-family="Lato-Light,Lato" font-size="34.0" fill="#FEFFFF" transform="matrix(1.00, 0.00, -0.00, -1.00, 298.4, 324.2)">k</text><text xml:space="preserve" font-family="Lato-Light,Lato" font-size="34.0" fill="#FEFFFF" transform="matrix(1.00, 0.00, -0.00, -1.00, 315.2, 324.2)">i</text><text xml:space="preserve" font-family="Lato-Light,Lato" font-size="34.0" fill="#FEFFFF" transform="matrix(1.00, 0.00, -0.00, -1.00, 323.2, 324.2)">n</text><text xml:space="preserve" font-family="Lato-Light,Lato" font-size="34.0" fill="#FEFFFF" transform="matrix(1.00, 0.00, -0.00, -1.00, 341.6, 324.2)">g</text><text xml:space="preserve" font-family="Lato-Light,Lato" font-size="34.0" fill="#FEFFFF" transform="matrix(1.00, 0.00, -0.00, -1.00, 358.8, 324.2)"> </text><text xml:space="preserve" font-family="Lato-Light,Lato" font-size="34.0" fill="#FEFFFF" transform="matrix(1.00, 0.00, -0.00, -1.00, 365.3, 324.2)">t</text><text xml:space="preserve" font-family="Lato-Light,Lato" font-size="34.0" fill="#FEFFFF" transform="matrix(1.00, 0.00, -0.00, -1.00, 377.4, 324.2)">h</text><text xml:space="preserve" font-family="Lato-Light,Lato" font-size="34.0" fill="#FEFFFF" transform="matrix(1.00, 0.00, -0.00, -1.00, 395.8, 324.2)">e</text><text xml:space="preserve" font-family="Lato-Light,Lato" font-size="34.0" fill="#FEFFFF" transform="matrix(1.00, 0.00, -0.00, -1.00, 413.2, 324.2)"> </text><text xml:space="preserve" font-family="Lato-Light,Lato" font-size="34.0" fill="#FEFFFF" transform="matrix(1.00, 0.00, -0.00, -1.00, 419.8, 324.2)">m</text><text xml:space="preserve" font-family="Lato-Light,Lato" font-size="34.0" fill="#FEFFFF" transform="matrix(1.00, 0.00, -0.00, -1.00, 446.8, 324.2)">o</text><text xml:space="preserve" font-family="Lato-Light,Lato" font-size="34.0" fill="#FEFFFF" transform="matrix(1.00, 0.00, -0.00, -1.00, 465.2, 324.2)">s</text><text xml:space="preserve" font-family="Lato-Light,Lato" font-size="34.0" fill="#FEFFFF" transform="matrix(1.00, 0.00, -0.00, -1.00, 479.8, 324.2)">t</text><text xml:space="preserve" font-family="Lato-Light,Lato" font-size="34.0" fill="#FEFFFF" transform="matrix(1.00, 0.00, -0.00, -1.00, 491.9, 324.2)"> </text><text xml:space="preserve" font-family="Lato-Light,Lato" font-size="34.0" fill="#FEFFFF" transform="matrix(1.00, 0.00, -0.00, -1.00, 498.5, 324.2)">o</text><text xml:space="preserve" font-family="Lato-Light,Lato" font-size="34.0" fill="#FEFFFF" transform="matrix(1.00, 0.00, -0.00, -1.00, 516.9, 324.2)">f</text><text xml:space="preserve" font-family="Lato-Light,Lato" font-size="34.0" fill="#FEFFFF" transform="matrix(1.00, 0.00, -0.00, -1.00, 527.8, 324.2)"> </text><text xml:space="preserve" font-family="Lato-Light,Lato" font-size="34.0" fill="#FEFFFF" transform="matrix(1.00, 0.00, -0.00, -1.00, 534.4, 324.2)">w</text><text xml:space="preserve" font-family="Lato-Light,Lato" font-size="34.0" fill="#FEFFFF" transform="matrix(1.00, 0.00, -0.00, -1.00, 559.4, 324.2)">h</text><text xml:space="preserve" font-family="Lato-Light,Lato" font-size="34.0" fill="#FEFFFF" transform="matrix(1.00, 0.00, -0.00, -1.00, 577.8, 324.2)">a</text><text xml:space="preserve" font-family="Lato-Light,Lato" font-size="34.0" fill="#FEFFFF" transform="matrix(1.00, 0.00, -0.00, -1.00, 594.3, 324.2)">t</text><text xml:space="preserve" font-family="Lato-Light,Lato" font-size="34.0" fill="#FEFFFF" transform="matrix(1.00, 0.00, -0.00, -1.00, 606.5, 324.2)"> </text><text xml:space="preserve" font-family="Lato-Light,Lato" font-size="34.0" fill="#FEFFFF" transform="matrix(1.00, 0.00, -0.00, -1.00, 613.0, 324.2)">S</text><text xml:space="preserve" font-family="Lato-Light,Lato" font-size="34.0" fill="#FEFFFF" transform="matrix(1.00, 0.00, -0.00, -1.00, 630.8, 324.2)">c</text><text xml:space="preserve" font-family="Lato-Light,Lato" font-size="34.0" fill="#FEFFFF" transform="matrix(1.00, 0.00, -0.00, -1.00, 646.2, 324.2)">a</text><text xml:space="preserve" font-family="Lato-Light,Lato" font-size="34.0" fill="#FEFFFF" transform="matrix(1.00, 0.00, -0.00, -1.00, 662.8, 324.2)">l</text><text xml:space="preserve" font-family="Lato-Light,Lato" font-size="34.0" fill="#FEFFFF" transform="matrix(1.00, 0.00, -0.00, -1.00, 670.8, 324.2)">a</text><text xml:space="preserve" font-family="Lato-Light,Lato" font-size="34.0" fill="#FEFFFF" transform="matrix(1.00, 0.00, -0.00, -1.00, 687.3, 324.2)"> </text><text xml:space="preserve" font-family="Lato-Light,Lato" font-size="34.0" fill="#FEFFFF" transform="matrix(1.00, 0.00, -0.00, -1.00, 693.9, 324.2)">o</text><text xml:space="preserve" font-family="Lato-Light,Lato" font-size="34.0" fill="#FEFFFF" transform="matrix(1.00, 0.00, -0.00, -1.00, 712.3, 324.2)">f</text><text xml:space="preserve" font-family="Lato-Light,Lato" font-size="34.0" fill="#FEFFFF" transform="matrix(1.00, 0.00, -0.00, -1.00, 723.2, 324.2)">f</text><text xml:space="preserve" font-family="Lato-Light,Lato" font-size="34.0" fill="#FEFFFF" transform="matrix(1.00, 0.00, -0.00, -1.00, 734.2, 324.2)">e</text><text xml:space="preserve" font-family="Lato-Light,Lato" font-size="34.0" fill="#FEFFFF" transform="matrix(1.00, 0.00, -0.00, -1.00, 751.6, 324.2)">r</text><text xml:space="preserve" font-family="Lato-Light,Lato" font-size="34.0" fill="#FEFFFF" transform="matrix(1.00, 0.00, -0.00, -1.00, 765.1, 324.2)">s</text><text xml:space="preserve" font-family="Lato-Light,Lato" font-size="34.0" fill="#FEFFFF" transform="matrix(1.00, 0.00, -0.00, -1.00, 779.7, 324.2)">?</text><text xml:space="preserve" font-family="Lato-Regular,Lato" font-size="42.0" fill="#FEFFFF" transform="matrix(1.00, 0.00, -0.00, -1.00, 792.5, 324.2)"> </text><text xml:space="preserve" font-family="Lato-Regular,Lato" font-size="42.0" fill="#FEFFFF" transform="matrix(1.00, 0.00, -0.00, -1.00, 278.5, 233.9)">I</text><text xml:space="preserve" font-family="Lato-Regular,Lato" font-size="42.0" fill="#FEFFFF" transform="matrix(1.00, 0.00, -0.00, -1.00, 291.4, 233.9)">s</text><text xml:space="preserve" font-family="Lato-Regular,Lato" font-size="42.0" fill="#FEFFFF" transform="matrix(1.00, 0.00, -0.00, -1.00, 309.6, 233.9)"> </text><text xml:space="preserve" font-family="Lato-Regular,Lato" font-size="42.0" fill="#FEFFFF" transform="matrix(1.00, 0.00, -0.00, -1.00, 317.7, 233.9)">t</text><text xml:space="preserve" font-family="Lato-Regular,Lato" font-size="42.0" fill="#FEFFFF" transform="matrix(1.00, 0.00, -0.00, -1.00, 333.4, 233.9)">h</text><text xml:space="preserve" font-family="Lato-Regular,Lato" font-size="42.0" fill="#FEFFFF" transform="matrix(1.00, 0.00, -0.00, -1.00, 356.7, 233.9)">i</text><text xml:space="preserve" font-family="Lato-Regular,Lato" font-size="42.0" fill="#FEFFFF" transform="matrix(1.00, 0.00, -0.00, -1.00, 367.5, 233.9)">s</text><text xml:space="preserve" font-family="Lato-Regular,Lato" font-size="42.0" fill="#FEFFFF" transform="matrix(1.00, 0.00, -0.00, -1.00, 385.7, 233.9)"> </text><text xml:space="preserve" font-family="Lato-Regular,Lato" font-size="42.0" fill="#FEFFFF" transform="matrix(1.00, 0.00, -0.00, -1.00, 393.8, 233.9)">c</text><text xml:space="preserve" font-family="Lato-Regular,Lato" font-size="42.0" fill="#FEFFFF" transform="matrix(1.00, 0.00, -0.00, -1.00, 413.4, 233.9)">o</text><text xml:space="preserve" font-family="Lato-Regular,Lato" font-size="42.0" fill="#FEFFFF" transform="matrix(1.00, 0.00, -0.00, -1.00, 436.8, 233.9)">d</text><text xml:space="preserve" font-family="Lato-Regular,Lato" font-size="42.0" fill="#FEFFFF" transform="matrix(1.00, 0.00, -0.00, -1.00, 460.2, 233.9)">e</text><text xml:space="preserve" font-family="Lato-Regular,Lato" font-size="42.0" fill="#FEFFFF" transform="matrix(1.00, 0.00, -0.00, -1.00, 482.2, 233.9)"> </text><text xml:space="preserve" font-family="Lato-Regular,Lato" font-size="42.0" fill="#FEFFFF" transform="matrix(1.00, 0.00, -0.00, -1.00, 490.3, 233.9)">m</text><text xml:space="preserve" font-family="Lato-Regular,Lato" font-size="42.0" fill="#FEFFFF" transform="matrix(1.00, 0.00, -0.00, -1.00, 524.8, 233.9)">a</text><text xml:space="preserve" font-family="Lato-Regular,Lato" font-size="42.0" fill="#FEFFFF" transform="matrix(1.00, 0.00, -0.00, -1.00, 546.1, 233.9)">i</text><text xml:space="preserve" font-family="Lato-Regular,Lato" font-size="42.0" fill="#FEFFFF" transform="matrix(1.00, 0.00, -0.00, -1.00, 556.9, 233.9)">n</text><text xml:space="preserve" font-family="Lato-Regular,Lato" font-size="42.0" fill="#FEFFFF" transform="matrix(1.00, 0.00, -0.00, -1.00, 580.2, 233.9)">t</text><text xml:space="preserve" font-family="Lato-Regular,Lato" font-size="42.0" fill="#FEFFFF" transform="matrix(1.00, 0.00, -0.00, -1.00, 595.9, 233.9)">a</text><text xml:space="preserve" font-family="Lato-Regular,Lato" font-size="42.0" fill="#FEFFFF" transform="matrix(1.00, 0.00, -0.00, -1.00, 617.2, 233.9)">i</text><text xml:space="preserve" font-family="Lato-Regular,Lato" font-size="42.0" fill="#FEFFFF" transform="matrix(1.00, 0.00, -0.00, -1.00, 627.9, 233.9)">n</text><text xml:space="preserve" font-family="Lato-Regular,Lato" font-size="42.0" fill="#FEFFFF" transform="matrix(1.00, 0.00, -0.00, -1.00, 651.3, 233.9)">a</text><text xml:space="preserve" font-family="Lato-Regular,Lato" font-size="42.0" fill="#FEFFFF" transform="matrix(1.00, 0.00, -0.00, -1.00, 672.6, 233.9)">b</text><text xml:space="preserve" font-family="Lato-Regular,Lato" font-size="42.0" fill="#FEFFFF" transform="matrix(1.00, 0.00, -0.00, -1.00, 696.1, 233.9)">l</text><text xml:space="preserve" font-family="Lato-Regular,Lato" font-size="42.0" fill="#FEFFFF" transform="matrix(1.00, 0.00, -0.00, -1.00, 706.8, 233.9)">e</text><text xml:space="preserve" font-family="Lato-Regular,Lato" font-size="42.0" fill="#FEFFFF" transform="matrix(1.00, 0.00, -0.00, -1.00, 728.8, 233.9)">?</text></g></svg>