<?xml version="1.0" encoding="UTF-8" standalone="no"?><svg xmlns="http://www.w3.org/2000/svg" xmlns:xlink="http://www.w3.org/1999/xlink" clip-rule="evenodd" stroke-miterlimit="10" viewBox="0 0 1024 768"><desc>SVG generated by Keynote</desc><defs></defs><g transform="matrix(1.00, 0.00, -0.00, -1.00, 0.0, 768.0)"><path d="M 0.0 768.0 L 1024.0 768.0 L 1024.0 0.0 L 0.0 0.0 Z M 0.0 768.0 " fill="#000000"></path><path d="M 0.3 -0.2 L 407.3 -0.2 L 407.3 407.8 L 0.3 407.8 Z M 0.0 0.0 " fill="none" stroke="#85878C" stroke-width="2.00" transform="matrix(1.00, 0.00, 0.00, -1.00, 308.7, 587.8)"></path><path d="M 156.2 735.2 C 190.6 700.9 190.6 645.1 156.2 610.8 C 121.9 576.4 66.1 576.4 31.8 610.8 C -2.6 645.1 -2.6 700.9 31.8 735.2 C 66.1 769.6 121.9 769.6 156.2 735.2 " fill="#FF2600"></path><path d="M 156.2 156.2 C 190.6 121.9 190.6 66.1 156.2 31.8 C 121.9 -2.6 66.1 -2.6 31.8 31.8 C -2.6 66.1 -2.6 121.9 31.8 156.2 C 66.1 190.6 121.9 190.6 156.2 156.2 " fill="#0432FF"></path><path d="M 993.2 736.2 C 1027.6 701.9 1027.6 646.1 993.2 611.8 C 958.9 577.4 903.1 577.4 868.8 611.8 C 834.4 646.1 834.4 701.9 868.8 736.2 C 903.1 770.6 958.9 770.6 993.2 736.2 " fill="#00F900"></path><path d="M 993.2 156.2 C 1027.6 121.9 1027.6 66.1 993.2 31.8 C 958.9 -2.6 903.1 -2.6 868.8 31.8 C 834.4 66.1 834.4 121.9 868.8 156.2 C 903.1 190.6 958.9 190.6 993.2 156.2 " fill="#FEFB00"></path><path d="M 619.3 490.8 C 678.2 431.8 678.2 336.2 619.3 277.2 C 560.3 218.3 464.7 218.3 405.7 277.2 C 346.8 336.2 346.8 431.8 405.7 490.8 C 464.7 549.7 560.3 549.7 619.3 490.8 " fill="#FFFFFF"></path><g><clipPath id="clip0x7fe750a9b930"><path d="M 355.5 233.0 L 669.5 233.0 L 669.5 535.0 L 355.5 535.0 Z M 355.5 233.0 "></path></clipPath><g clip-path="url(#clip0x7fe750a9b930)"><text xml:space="preserve" font-family="Helvetica-Light,Helvetica" font-size="67.0" fill="#000000" transform="matrix(1.00, 0.00, -0.00, -1.00, 438.0, 446.4)">1</text><text xml:space="preserve" font-family="Helvetica-Light,Helvetica" font-size="67.0" fill="#000000" transform="matrix(1.00, 0.00, -0.00, -1.00, 475.2, 446.4)">0</text><text xml:space="preserve" font-family="Helvetica-Light,Helvetica" font-size="67.0" fill="#000000" transform="matrix(1.00, 0.00, -0.00, -1.00, 512.5, 446.4)">2</text><text xml:space="preserve" font-family="Helvetica-Light,Helvetica" font-size="67.0" fill="#000000" transform="matrix(1.00, 0.00, -0.00, -1.00, 549.8, 446.4)">4</text><text xml:space="preserve" font-family="Helvetica-Light,Helvetica" font-size="67.0" fill="#000000" transform="matrix(1.00, 0.00, -0.00, -1.00, 587.0, 446.4)"> </text><text xml:space="preserve" font-family="Helvetica-Light,Helvetica" font-size="67.0" fill="#000000" transform="matrix(1.00, 0.00, -0.00, -1.00, 495.8, 366.4)">x</text><text xml:space="preserve" font-family="Helvetica-Light,Helvetica" font-size="67.0" fill="#000000" transform="matrix(1.00, 0.00, -0.00, -1.00, 529.2, 366.4)"> </text><text xml:space="preserve" font-family="Helvetica-Light,Helvetica" font-size="67.0" fill="#000000" transform="matrix(1.00, 0.00, -0.00, -1.00, 456.6, 286.4)">7</text><text xml:space="preserve" font-family="Helvetica-Light,Helvetica" font-size="67.0" fill="#000000" transform="matrix(1.00, 0.00, -0.00, -1.00, 493.9, 286.4)">6</text><text xml:space="preserve" font-family="Helvetica-Light,Helvetica" font-size="67.0" fill="#000000" transform="matrix(1.00, 0.00, -0.00, -1.00, 531.1, 286.4)">8</text></g></g></g></svg>