<?xml version="1.0" encoding="UTF-8" standalone="no"?><svg xmlns="http://www.w3.org/2000/svg" xmlns:xlink="http://www.w3.org/1999/xlink" clip-rule="evenodd" stroke-miterlimit="10" viewBox="0 0 1024 768"><desc>SVG generated by Keynote</desc><defs><pattern id="810DD56E-AE49-46C5-94B5-38BB8B3AB353" patternUnits="userSpaceOnUse" width="256" height="256" viewBox="0 0 256 256"><image xlink:href="../../698DAC50-AD38-4CA5-BE86-B29E80DBB28C/assets/5EC4F14D6428F037BE92C41D27AA9799.png" width="256.00" height="256.00"></image></pattern><pattern id="A1B16083-D393-4C70-8381-EBEDF9B90D32" patternUnits="userSpaceOnUse" width="256" height="256" viewBox="0 0 256 256"><image xlink:href="../../698DAC50-AD38-4CA5-BE86-B29E80DBB28C/assets/5EC4F14D6428F037BE92C41D27AA9799.png" width="256.00" height="256.00"></image></pattern></defs><g transform="matrix(1.00, 0.00, -0.00, -1.00, 0.0, 768.0)"><path d="M 0.0 768.0 L 1024.0 768.0 L 1024.0 0.0 L 0.0 0.0 Z M 0.0 768.0 " fill="#0D3A4C"></path><image xlink:href="40CAB1984644F89AFACC622F7071A3DB.png" width="1086.00" height="975.00" transform="matrix(0.87, 0.00, -0.00, -0.87, 59.0, 788.0)"></image><g><clipPath id="clip0x6000006bd280"><path d="M 159.0 473.0 L 838.0 473.0 L 838.0 385.0 L 159.0 385.0 Z M 158.7 472.7 "></path></clipPath><g clip-path="url(#clip0x6000006bd280)"><path d="M 159.0 385.0 L 838.0 385.0 L 838.0 473.0 L 159.0 473.0 Z M 159.0 385.0 " fill="url(#810DD56E-AE49-46C5-94B5-38BB8B3AB353)"></path></g></g><g><clipPath id="clip0x6180004bc5c0"><path d="M 156.0 389.0 L 926.0 389.0 L 926.0 274.0 L 156.0 274.0 Z M 155.7 389.2 "></path></clipPath><g clip-path="url(#clip0x6180004bc5c0)"><path d="M 156.0 274.0 L 926.0 274.0 L 926.0 389.0 L 156.0 389.0 Z M 156.0 274.0 " fill="url(#A1B16083-D393-4C70-8381-EBEDF9B90D32)"></path></g></g></g></svg>