<?xml version="1.0" encoding="UTF-8" standalone="no"?><svg xmlns="http://www.w3.org/2000/svg" xmlns:xlink="http://www.w3.org/1999/xlink" clip-rule="evenodd" stroke-miterlimit="10" viewBox="0 0 1024 768"><desc>SVG generated by Keynote</desc><defs></defs><g transform="matrix(1.00, 0.00, -0.00, -1.00, 0.0, 768.0)"><path d="M 0.0 768.0 L 1024.0 768.0 L 1024.0 0.0 L 0.0 0.0 Z M 0.0 768.0 " fill="#0D3A4C"></path><text xml:space="preserve" font-family="Lato-Regular,Lato" font-size="80.0" fill="#FEFFFF" transform="matrix(1.00, 0.00, -0.00, -1.00, 346.0, 632.0)">S</text><text xml:space="preserve" font-family="Lato-Regular,Lato" font-size="80.0" fill="#FEFFFF" transform="matrix(1.00, 0.00, -0.00, -1.00, 388.4, 632.0)">u</text><text xml:space="preserve" font-family="Lato-Regular,Lato" font-size="80.0" fill="#FEFFFF" transform="matrix(1.00, 0.00, -0.00, -1.00, 432.9, 632.0)">m</text><text xml:space="preserve" font-family="Lato-Regular,Lato" font-size="80.0" fill="#FEFFFF" transform="matrix(1.00, 0.00, -0.00, -1.00, 498.6, 632.0)">m</text><text xml:space="preserve" font-family="Lato-Regular,Lato" font-size="80.0" fill="#FEFFFF" transform="matrix(1.00, 0.00, -0.00, -1.00, 564.2, 632.0)">a</text><text xml:space="preserve" font-family="Lato-Regular,Lato" font-size="80.0" fill="#FEFFFF" transform="matrix(1.00, 0.00, -0.00, -1.00, 604.8, 632.0)">r</text><text xml:space="preserve" font-family="Lato-Regular,Lato" font-size="80.0" fill="#FEFFFF" transform="matrix(1.00, 0.00, -0.00, -1.00, 637.0, 632.0)">y</text><text xml:space="preserve" font-family="Lato-Regular,Lato" font-size="42.0" fill="#FEFFFF" transform="matrix(1.00, 0.00, -0.00, -1.00, 157.6, 345.9)">L</text><text xml:space="preserve" font-family="Lato-Regular,Lato" font-size="42.0" fill="#FEFFFF" transform="matrix(1.00, 0.00, -0.00, -1.00, 178.5, 345.9)">e</text><text xml:space="preserve" font-family="Lato-Regular,Lato" font-size="42.0" fill="#FEFFFF" transform="matrix(1.00, 0.00, -0.00, -1.00, 200.5, 345.9)">a</text><text xml:space="preserve" font-family="Lato-Regular,Lato" font-size="42.0" fill="#FEFFFF" transform="matrix(1.00, 0.00, -0.00, -1.00, 221.8, 345.9)">r</text><text xml:space="preserve" font-family="Lato-Regular,Lato" font-size="42.0" fill="#FEFFFF" transform="matrix(1.00, 0.00, -0.00, -1.00, 238.7, 345.9)">n</text><text xml:space="preserve" font-family="Lato-Regular,Lato" font-size="42.0" fill="#FEFFFF" transform="matrix(1.00, 0.00, -0.00, -1.00, 262.0, 345.9)"> </text><text xml:space="preserve" font-family="Lato-Regular,Lato" font-size="42.0" fill="#FEFFFF" transform="matrix(1.00, 0.00, -0.00, -1.00, 270.1, 345.9)">a</text><text xml:space="preserve" font-family="Lato-Regular,Lato" font-size="42.0" fill="#FEFFFF" transform="matrix(1.00, 0.00, -0.00, -1.00, 291.4, 345.9)">b</text><text xml:space="preserve" font-family="Lato-Regular,Lato" font-size="42.0" fill="#FEFFFF" transform="matrix(1.00, 0.00, -0.00, -1.00, 314.9, 345.9)">o</text><text xml:space="preserve" font-family="Lato-Regular,Lato" font-size="42.0" fill="#FEFFFF" transform="matrix(1.00, 0.00, -0.00, -1.00, 338.3, 345.9)">u</text><text xml:space="preserve" font-family="Lato-Regular,Lato" font-size="42.0" fill="#FEFFFF" transform="matrix(1.00, 0.00, -0.00, -1.00, 361.6, 345.9)">t</text><text xml:space="preserve" font-family="Lato-Regular,Lato" font-size="42.0" fill="#FEFFFF" transform="matrix(1.00, 0.00, -0.00, -1.00, 377.3, 345.9)"> </text><text xml:space="preserve" font-family="Lato-Regular,Lato" font-size="42.0" fill="#FEFFFF" transform="matrix(1.00, 0.00, -0.00, -1.00, 385.4, 345.9)">t</text><text xml:space="preserve" font-family="Lato-Regular,Lato" font-size="42.0" fill="#FEFFFF" transform="matrix(1.00, 0.00, -0.00, -1.00, 401.1, 345.9)">h</text><text xml:space="preserve" font-family="Lato-Regular,Lato" font-size="42.0" fill="#FEFFFF" transform="matrix(1.00, 0.00, -0.00, -1.00, 424.4, 345.9)">e</text><text xml:space="preserve" font-family="Lato-Regular,Lato" font-size="42.0" fill="#FEFFFF" transform="matrix(1.00, 0.00, -0.00, -1.00, 446.4, 345.9)"> </text><text xml:space="preserve" font-family="Lato-Regular,Lato" font-size="42.0" fill="#FEFFFF" transform="matrix(1.00, 0.00, -0.00, -1.00, 454.5, 345.9)">w</text><text xml:space="preserve" font-family="Lato-Regular,Lato" font-size="42.0" fill="#FEFFFF" transform="matrix(1.00, 0.00, -0.00, -1.00, 486.7, 345.9)">i</text><text xml:space="preserve" font-family="Lato-Regular,Lato" font-size="42.0" fill="#FEFFFF" transform="matrix(1.00, 0.00, -0.00, -1.00, 497.4, 345.9)">d</text><text xml:space="preserve" font-family="Lato-Regular,Lato" font-size="42.0" fill="#FEFFFF" transform="matrix(1.00, 0.00, -0.00, -1.00, 520.9, 345.9)">e</text><text xml:space="preserve" font-family="Lato-Regular,Lato" font-size="42.0" fill="#FEFFFF" transform="matrix(1.00, 0.00, -0.00, -1.00, 542.9, 345.9)">r</text><text xml:space="preserve" font-family="Lato-Regular,Lato" font-size="42.0" fill="#FEFFFF" transform="matrix(1.00, 0.00, -0.00, -1.00, 559.9, 345.9)"> </text><text xml:space="preserve" font-family="Lato-Regular,Lato" font-size="42.0" fill="#FEFFFF" transform="matrix(1.00, 0.00, -0.00, -1.00, 568.0, 345.9)">S</text><text xml:space="preserve" font-family="Lato-Regular,Lato" font-size="42.0" fill="#FEFFFF" transform="matrix(1.00, 0.00, -0.00, -1.00, 590.2, 345.9)">c</text><text xml:space="preserve" font-family="Lato-Regular,Lato" font-size="42.0" fill="#FEFFFF" transform="matrix(1.00, 0.00, -0.00, -1.00, 609.8, 345.9)">a</text><text xml:space="preserve" font-family="Lato-Regular,Lato" font-size="42.0" fill="#FEFFFF" transform="matrix(1.00, 0.00, -0.00, -1.00, 631.1, 345.9)">l</text><text xml:space="preserve" font-family="Lato-Regular,Lato" font-size="42.0" fill="#FEFFFF" transform="matrix(1.00, 0.00, -0.00, -1.00, 641.9, 345.9)">a</text><text xml:space="preserve" font-family="Lato-Regular,Lato" font-size="42.0" fill="#FEFFFF" transform="matrix(1.00, 0.00, -0.00, -1.00, 663.2, 345.9)"> </text><text xml:space="preserve" font-family="Lato-Regular,Lato" font-size="42.0" fill="#FEFFFF" transform="matrix(1.00, 0.00, -0.00, -1.00, 671.3, 345.9)">e</text><text xml:space="preserve" font-family="Lato-Regular,Lato" font-size="42.0" fill="#FEFFFF" transform="matrix(1.00, 0.00, -0.00, -1.00, 693.3, 345.9)">c</text><text xml:space="preserve" font-family="Lato-Regular,Lato" font-size="42.0" fill="#FEFFFF" transform="matrix(1.00, 0.00, -0.00, -1.00, 712.9, 345.9)">o</text><text xml:space="preserve" font-family="Lato-Regular,Lato" font-size="42.0" fill="#FEFFFF" transform="matrix(1.00, 0.00, -0.00, -1.00, 736.3, 345.9)">s</text><text xml:space="preserve" font-family="Lato-Regular,Lato" font-size="42.0" fill="#FEFFFF" transform="matrix(1.00, 0.00, -0.00, -1.00, 754.5, 345.9)">y</text><text xml:space="preserve" font-family="Lato-Regular,Lato" font-size="42.0" fill="#FEFFFF" transform="matrix(1.00, 0.00, -0.00, -1.00, 776.0, 345.9)">s</text><text xml:space="preserve" font-family="Lato-Regular,Lato" font-size="42.0" fill="#FEFFFF" transform="matrix(1.00, 0.00, -0.00, -1.00, 794.2, 345.9)">t</text><text xml:space="preserve" font-family="Lato-Regular,Lato" font-size="42.0" fill="#FEFFFF" transform="matrix(1.00, 0.00, -0.00, -1.00, 809.9, 345.9)">e</text><text xml:space="preserve" font-family="Lato-Regular,Lato" font-size="42.0" fill="#FEFFFF" transform="matrix(1.00, 0.00, -0.00, -1.00, 831.9, 345.9)">m</text><text xml:space="preserve" font-family="Lato-Regular,Lato" font-size="42.0" fill="#FEFFFF" transform="matrix(1.00, 0.00, -0.00, -1.00, 866.4, 345.9)"> </text><text xml:space="preserve" font-family="Lato-Regular,Lato" font-size="42.0" fill="#FEFFFF" transform="matrix(1.00, 0.00, -0.00, -1.00, 229.5, 253.9)">D</text><text xml:space="preserve" font-family="Lato-Regular,Lato" font-size="42.0" fill="#FEFFFF" transform="matrix(1.00, 0.00, -0.00, -1.00, 261.1, 253.9)">o</text><text xml:space="preserve" font-family="Lato-Regular,Lato" font-size="42.0" fill="#FEFFFF" transform="matrix(1.00, 0.00, -0.00, -1.00, 284.5, 253.9)">n</text><text xml:space="preserve" font-family="Lato-Regular,Lato" font-size="42.0" fill="#FEFFFF" transform="matrix(1.00, 0.00, -0.00, -1.00, 306.3, 253.9)">’</text><text xml:space="preserve" font-family="Lato-Regular,Lato" font-size="42.0" fill="#FEFFFF" transform="matrix(1.00, 0.00, -0.00, -1.00, 315.2, 253.9)">t</text><text xml:space="preserve" font-family="Lato-Regular,Lato" font-size="42.0" fill="#FEFFFF" transform="matrix(1.00, 0.00, -0.00, -1.00, 330.9, 253.9)"> </text><text xml:space="preserve" font-family="Lato-Regular,Lato" font-size="42.0" fill="#FEFFFF" transform="matrix(1.00, 0.00, -0.00, -1.00, 339.0, 253.9)">l</text><text xml:space="preserve" font-family="Lato-Regular,Lato" font-size="42.0" fill="#FEFFFF" transform="matrix(1.00, 0.00, -0.00, -1.00, 349.8, 253.9)">e</text><text xml:space="preserve" font-family="Lato-Regular,Lato" font-size="42.0" fill="#FEFFFF" transform="matrix(1.00, 0.00, -0.00, -1.00, 371.8, 253.9)">a</text><text xml:space="preserve" font-family="Lato-Regular,Lato" font-size="42.0" fill="#FEFFFF" transform="matrix(1.00, 0.00, -0.00, -1.00, 392.4, 253.9)">v</text><text xml:space="preserve" font-family="Lato-Regular,Lato" font-size="42.0" fill="#FEFFFF" transform="matrix(1.00, 0.00, -0.00, -1.00, 413.3, 253.9)">e</text><text xml:space="preserve" font-family="Lato-Regular,Lato" font-size="42.0" fill="#FEFFFF" transform="matrix(1.00, 0.00, -0.00, -1.00, 435.4, 253.9)"> </text><text xml:space="preserve" font-family="Lato-Regular,Lato" font-size="42.0" fill="#FEFFFF" transform="matrix(1.00, 0.00, -0.00, -1.00, 443.5, 253.9)">i</text><text xml:space="preserve" font-family="Lato-Regular,Lato" font-size="42.0" fill="#FEFFFF" transform="matrix(1.00, 0.00, -0.00, -1.00, 454.2, 253.9)">t</text><text xml:space="preserve" font-family="Lato-Regular,Lato" font-size="42.0" fill="#FEFFFF" transform="matrix(1.00, 0.00, -0.00, -1.00, 469.9, 253.9)"> </text><text xml:space="preserve" font-family="Lato-Regular,Lato" font-size="42.0" fill="#FEFFFF" transform="matrix(1.00, 0.00, -0.00, -1.00, 478.0, 253.9)">u</text><text xml:space="preserve" font-family="Lato-Regular,Lato" font-size="42.0" fill="#FEFFFF" transform="matrix(1.00, 0.00, -0.00, -1.00, 501.3, 253.9)">n</text><text xml:space="preserve" font-family="Lato-Regular,Lato" font-size="42.0" fill="#FEFFFF" transform="matrix(1.00, 0.00, -0.00, -1.00, 524.7, 253.9)">t</text><text xml:space="preserve" font-family="Lato-Regular,Lato" font-size="42.0" fill="#FEFFFF" transform="matrix(1.00, 0.00, -0.00, -1.00, 540.4, 253.9)">i</text><text xml:space="preserve" font-family="Lato-Regular,Lato" font-size="42.0" fill="#FEFFFF" transform="matrix(1.00, 0.00, -0.00, -1.00, 551.1, 253.9)">l</text><text xml:space="preserve" font-family="Lato-Regular,Lato" font-size="42.0" fill="#FEFFFF" transform="matrix(1.00, 0.00, -0.00, -1.00, 561.9, 253.9)"> </text><text xml:space="preserve" font-family="Lato-Regular,Lato" font-size="42.0" fill="#FEFFFF" transform="matrix(1.00, 0.00, -0.00, -1.00, 570.0, 253.9)">“</text><text xml:space="preserve" font-family="Lato-Regular,Lato" font-size="42.0" fill="#FEFFFF" transform="matrix(1.00, 0.00, -0.00, -1.00, 585.2, 253.9)">t</text><text xml:space="preserve" font-family="Lato-Regular,Lato" font-size="42.0" fill="#FEFFFF" transform="matrix(1.00, 0.00, -0.00, -1.00, 600.9, 253.9)">h</text><text xml:space="preserve" font-family="Lato-Regular,Lato" font-size="42.0" fill="#FEFFFF" transform="matrix(1.00, 0.00, -0.00, -1.00, 624.3, 253.9)">e</text><text xml:space="preserve" font-family="Lato-Regular,Lato" font-size="42.0" fill="#FEFFFF" transform="matrix(1.00, 0.00, -0.00, -1.00, 646.3, 253.9)"> </text><text xml:space="preserve" font-family="Lato-Regular,Lato" font-size="42.0" fill="#FEFFFF" transform="matrix(1.00, 0.00, -0.00, -1.00, 654.4, 253.9)">r</text><text xml:space="preserve" font-family="Lato-Regular,Lato" font-size="42.0" fill="#FEFFFF" transform="matrix(1.00, 0.00, -0.00, -1.00, 671.3, 253.9)">e</text><text xml:space="preserve" font-family="Lato-Regular,Lato" font-size="42.0" fill="#FEFFFF" transform="matrix(1.00, 0.00, -0.00, -1.00, 692.8, 253.9)">v</text><text xml:space="preserve" font-family="Lato-Regular,Lato" font-size="42.0" fill="#FEFFFF" transform="matrix(1.00, 0.00, -0.00, -1.00, 714.3, 253.9)">i</text><text xml:space="preserve" font-family="Lato-Regular,Lato" font-size="42.0" fill="#FEFFFF" transform="matrix(1.00, 0.00, -0.00, -1.00, 725.0, 253.9)">e</text><text xml:space="preserve" font-family="Lato-Regular,Lato" font-size="42.0" fill="#FEFFFF" transform="matrix(1.00, 0.00, -0.00, -1.00, 747.0, 253.9)">w</text><text xml:space="preserve" font-family="Lato-Regular,Lato" font-size="42.0" fill="#FEFFFF" transform="matrix(1.00, 0.00, -0.00, -1.00, 779.2, 253.9)">”</text></g></svg>