<?xml version="1.0" encoding="UTF-8" standalone="no"?><svg xmlns="http://www.w3.org/2000/svg" xmlns:xlink="http://www.w3.org/1999/xlink" clip-rule="evenodd" stroke-miterlimit="10" viewBox="0 0 1024 768"><desc>SVG generated by Keynote</desc><defs></defs><g transform="matrix(1.00, 0.00, -0.00, -1.00, 0.0, 768.0)"><path d="M 0.0 768.0 L 1024.0 768.0 L 1024.0 0.0 L 0.0 0.0 Z M 0.0 768.0 " fill="#0D3A4C"></path><g opacity="0.10"><g><clipPath id="clip0x7fe75457c970"><path d="M 0.0 0.0 L 265.0 0.0 L 265.0 768.0 L 0.0 768.0 Z M 0.0 0.0 "></path></clipPath><g clip-path="url(#clip0x7fe75457c970)"><path d="M 263.7 783.2 L 132.1 -15.0 L -10.5 -15.0 L -11.9 777.6 L 263.7 783.2 Z M 263.7 783.2 " fill="#FEFFFE"></path></g></g></g><g opacity="0.10"><g><clipPath id="clip0x7fe75457e190"><path d="M 0.0 504.0 L 485.0 504.0 L 485.0 768.0 L 0.0 768.0 Z M 0.0 504.0 "></path></clipPath><g clip-path="url(#clip0x7fe75457e190)"><path d="M 483.5 779.6 L -9.4 505.5 L -11.9 777.6 L 483.5 779.6 Z M 483.5 779.6 " fill="#FEFFFE"></path></g></g></g><g opacity="0.10"><g><clipPath id="clip0x7fe75457f980"><path d="M 752.0 0.0 L 1024.0 0.0 L 1024.0 768.0 L 752.0 768.0 Z M 752.0 0.0 "></path></clipPath><g clip-path="url(#clip0x7fe75457f980)"><path d="M 753.6 781.3 L 1016.8 -12.0 L 1035.9 -13.0 L 1037.3 775.7 L 753.6 781.3 Z M 753.6 781.3 " fill="#000000"></path></g></g></g><g opacity="0.10"><g><clipPath id="clip0x7fe7545811a0"><path d="M 686.0 0.0 L 1024.0 0.0 L 1024.0 317.0 L 686.0 317.0 Z M 686.0 0.0 "></path></clipPath><g clip-path="url(#clip0x7fe7545811a0)"><path d="M 687.6 -5.6 L 1033.7 315.4 L 1035.4 -3.3 L 687.6 -5.6 Z M 687.6 -5.6 " fill="#000000"></path></g></g></g><text xml:space="preserve" font-family="Lato-Regular,Lato" font-size="80.0" fill="#FEFFFF" transform="matrix(1.00, 0.00, -0.00, -1.00, 371.6, 400.0)">T</text><text xml:space="preserve" font-family="Lato-Regular,Lato" font-size="80.0" fill="#FEFFFF" transform="matrix(1.00, 0.00, -0.00, -1.00, 418.8, 400.0)">h</text><text xml:space="preserve" font-family="Lato-Regular,Lato" font-size="80.0" fill="#FEFFFF" transform="matrix(1.00, 0.00, -0.00, -1.00, 463.3, 400.0)">a</text><text xml:space="preserve" font-family="Lato-Regular,Lato" font-size="80.0" fill="#FEFFFF" transform="matrix(1.00, 0.00, -0.00, -1.00, 503.8, 400.0)">n</text><text xml:space="preserve" font-family="Lato-Regular,Lato" font-size="80.0" fill="#FEFFFF" transform="matrix(1.00, 0.00, -0.00, -1.00, 548.3, 400.0)">k</text><text xml:space="preserve" font-family="Lato-Regular,Lato" font-size="80.0" fill="#FEFFFF" transform="matrix(1.00, 0.00, -0.00, -1.00, 590.2, 400.0)">s</text><text xml:space="preserve" font-family="Lato-Regular,Lato" font-size="80.0" fill="#FEFFFF" transform="matrix(1.00, 0.00, -0.00, -1.00, 625.0, 400.0)">!</text><text xml:space="preserve" font-family="Lato-Regular,Lato" font-size="32.0" fill="#FEFFFE" transform="matrix(1.00, 0.00, -0.00, -1.00, 345.0, 335.8)">R</text><text xml:space="preserve" font-family="Lato-Regular,Lato" font-size="32.0" fill="#FEFFFE" transform="matrix(1.00, 0.00, -0.00, -1.00, 365.6, 335.8)">i</text><text xml:space="preserve" font-family="Lato-Regular,Lato" font-size="32.0" fill="#FEFFFE" transform="matrix(1.00, 0.00, -0.00, -1.00, 373.8, 335.8)">c</text><text xml:space="preserve" font-family="Lato-Regular,Lato" font-size="32.0" fill="#FEFFFE" transform="matrix(1.00, 0.00, -0.00, -1.00, 388.8, 335.8)">h</text><text xml:space="preserve" font-family="Lato-Regular,Lato" font-size="32.0" fill="#FEFFFE" transform="matrix(1.00, 0.00, -0.00, -1.00, 406.5, 335.8)">a</text><text xml:space="preserve" font-family="Lato-Regular,Lato" font-size="32.0" fill="#FEFFFE" transform="matrix(1.00, 0.00, -0.00, -1.00, 422.8, 335.8)">r</text><text xml:space="preserve" font-family="Lato-Regular,Lato" font-size="32.0" fill="#FEFFFE" transform="matrix(1.00, 0.00, -0.00, -1.00, 435.7, 335.8)">d</text><text xml:space="preserve" font-family="Lato-Regular,Lato" font-size="32.0" fill="#FEFFFE" transform="matrix(1.00, 0.00, -0.00, -1.00, 453.6, 335.8)"> </text><text xml:space="preserve" font-family="Lato-Regular,Lato" font-size="32.0" fill="#FEFFFE" transform="matrix(1.00, 0.00, -0.00, -1.00, 459.7, 335.8)">D</text><text xml:space="preserve" font-family="Lato-Regular,Lato" font-size="32.0" fill="#FEFFFE" transform="matrix(1.00, 0.00, -0.00, -1.00, 483.8, 335.8)">a</text><text xml:space="preserve" font-family="Lato-Regular,Lato" font-size="32.0" fill="#FEFFFE" transform="matrix(1.00, 0.00, -0.00, -1.00, 500.0, 335.8)">l</text><text xml:space="preserve" font-family="Lato-Regular,Lato" font-size="32.0" fill="#FEFFFE" transform="matrix(1.00, 0.00, -0.00, -1.00, 508.2, 335.8)">l</text><text xml:space="preserve" font-family="Lato-Regular,Lato" font-size="32.0" fill="#FEFFFE" transform="matrix(1.00, 0.00, -0.00, -1.00, 516.4, 335.8)">a</text><text xml:space="preserve" font-family="Lato-Regular,Lato" font-size="32.0" fill="#FEFFFE" transform="matrix(1.00, 0.00, -0.00, -1.00, 532.4, 335.8)">w</text><text xml:space="preserve" font-family="Lato-Regular,Lato" font-size="32.0" fill="#FEFFFE" transform="matrix(1.00, 0.00, -0.00, -1.00, 556.9, 335.8)">a</text><text xml:space="preserve" font-family="Lato-Regular,Lato" font-size="32.0" fill="#FEFFFE" transform="matrix(1.00, 0.00, -0.00, -1.00, 572.6, 335.8)">y</text><text xml:space="preserve" font-family="Lato-Regular,Lato" font-size="32.0" fill="#FEFFFE" transform="matrix(1.00, 0.00, -0.00, -1.00, 586.9, 335.8)">,</text><text xml:space="preserve" font-family="Lato-Regular,Lato" font-size="32.0" fill="#FEFFFE" transform="matrix(1.00, 0.00, -0.00, -1.00, 593.7, 335.8)"> </text><text xml:space="preserve" font-family="Lato-Regular,Lato" font-size="32.0" fill="#FEFFFE" transform="matrix(1.00, 0.00, -0.00, -1.00, 599.9, 335.8)">@</text><text xml:space="preserve" font-family="Lato-Regular,Lato" font-size="32.0" fill="#FEFFFE" transform="matrix(1.00, 0.00, -0.00, -1.00, 626.2, 335.8)">d</text><text xml:space="preserve" font-family="Lato-Regular,Lato" font-size="32.0" fill="#FEFFFE" transform="matrix(1.00, 0.00, -0.00, -1.00, 644.0, 335.8)">6</text><text xml:space="preserve" font-family="Lato-Regular,Lato" font-size="32.0" fill="#FEFFFE" transform="matrix(1.00, 0.00, -0.00, -1.00, 662.6, 335.8)">y</text><g><clipPath id="clip0x7fe75458e080"><path d="M 384.0 102.0 L 431.0 102.0 L 431.0 61.0 L 384.0 61.0 Z M 384.0 102.0 "></path></clipPath><g clip-path="url(#clip0x7fe75458e080)"><g><clipPath id="clip0x7fe75458e7f0"><path d="M 384.5 61.0 L 431.0 61.0 L 431.0 102.0 L 384.5 102.0 Z M 384.5 61.0 "></path></clipPath><g clip-path="url(#clip0x7fe75458e7f0)"><path d="M 419.0 71.5 C 418.8 71.3 418.6 71.2 418.3 71.1 C 418.1 71.0 417.8 70.9 417.6 70.9 C 417.3 70.9 417.0 71.0 416.8 71.1 C 416.5 71.2 416.3 71.3 416.1 71.5 C 415.9 71.7 415.8 71.9 415.7 72.1 C 415.6 72.4 415.5 72.6 415.5 72.9 C 415.5 73.2 415.6 73.4 415.7 73.7 C 415.8 73.9 415.9 74.1 416.1 74.3 C 416.5 74.7 417.0 74.9 417.6 74.9 C 417.8 74.9 418.1 74.8 418.3 74.7 C 418.6 74.6 418.8 74.5 419.0 74.3 C 419.4 73.9 419.6 73.5 419.6 72.9 C 419.6 72.3 419.4 71.9 419.0 71.5 M 409.6 71.1 L 395.4 71.1 L 395.4 73.7 L 409.6 73.7 Z M 430.6 93.6 C 430.3 97.7 426.2 101.3 421.7 101.6 C 412.2 102.1 402.8 102.1 393.3 101.6 C 388.8 101.3 384.7 97.7 384.4 93.6 C 383.9 85.5 383.9 77.5 384.4 69.4 C 384.7 65.3 388.8 61.7 393.3 61.4 C 402.8 60.9 412.2 60.9 421.7 61.4 C 426.2 61.7 430.3 65.3 430.6 69.4 C 431.1 77.5 431.1 85.5 430.6 93.6 " fill="#FDFDFD"></path></g></g></g></g><g><clipPath id="clip0x7fe75458fe10"><path d="M 427.5 47.8 L 649.8 47.8 L 649.8 117.2 L 427.5 117.2 Z M 427.5 47.8 "></path></clipPath><g clip-path="url(#clip0x7fe75458fe10)"><text xml:space="preserve" font-family="Lato-Bold,Lato" font-weight="bold" font-size="39.0" fill="#FEFFFF" transform="matrix(1.00, 0.00, -0.00, -1.00, 439.7, 67.8)">u</text><text xml:space="preserve" font-family="Lato-Bold,Lato" font-weight="bold" font-size="39.0" fill="#FEFFFF" transform="matrix(1.00, 0.00, -0.00, -1.00, 461.8, 67.8)">n</text><text xml:space="preserve" font-family="Lato-Bold,Lato" font-weight="bold" font-size="39.0" fill="#FEFFFF" transform="matrix(1.00, 0.00, -0.00, -1.00, 484.0, 67.8)">d</text><text xml:space="preserve" font-family="Lato-Bold,Lato" font-weight="bold" font-size="39.0" fill="#FEFFFF" transform="matrix(1.00, 0.00, -0.00, -1.00, 506.2, 67.8)">e</text><text xml:space="preserve" font-family="Lato-Bold,Lato" font-weight="bold" font-size="39.0" fill="#FEFFFF" transform="matrix(1.00, 0.00, -0.00, -1.00, 527.1, 67.8)">r</text><text xml:space="preserve" font-family="Lato-Bold,Lato" font-weight="bold" font-size="39.0" fill="#FEFFFF" transform="matrix(1.00, 0.00, -0.00, -1.00, 543.0, 67.8)">s</text><text xml:space="preserve" font-family="Lato-Bold,Lato" font-weight="bold" font-size="39.0" fill="#FEFFFF" transform="matrix(1.00, 0.00, -0.00, -1.00, 560.0, 67.8)">c</text><text xml:space="preserve" font-family="Lato-Bold,Lato" font-weight="bold" font-size="39.0" fill="#FEFFFF" transform="matrix(1.00, 0.00, -0.00, -1.00, 578.6, 67.8)">o</text><text xml:space="preserve" font-family="Lato-Bold,Lato" font-weight="bold" font-size="39.0" fill="#FEFFFF" transform="matrix(1.00, 0.00, -0.00, -1.00, 600.8, 67.8)">r</text><text xml:space="preserve" font-family="Lato-Bold,Lato" font-weight="bold" font-size="39.0" fill="#FEFFFF" transform="matrix(1.00, 0.00, -0.00, -1.00, 616.7, 67.8)">e</text></g></g><text xml:space="preserve" font-family="Helvetica-Light,Helvetica" font-size="34.0" fill="#FEFFFF" transform="matrix(1.00, 0.00, -0.00, -1.00, 295.1, 267.6)">h</text><text xml:space="preserve" font-family="Helvetica-Light,Helvetica" font-size="34.0" fill="#FEFFFF" transform="matrix(1.00, 0.00, -0.00, -1.00, 314.0, 267.6)">t</text><text xml:space="preserve" font-family="Helvetica-Light,Helvetica" font-size="34.0" fill="#FEFFFF" transform="matrix(1.00, 0.00, -0.00, -1.00, 323.4, 267.6)">t</text><text xml:space="preserve" font-family="Helvetica-Light,Helvetica" font-size="34.0" fill="#FEFFFF" transform="matrix(1.00, 0.00, -0.00, -1.00, 332.9, 267.6)">p</text><text xml:space="preserve" font-family="Helvetica-Light,Helvetica" font-size="34.0" fill="#FEFFFF" transform="matrix(1.00, 0.00, -0.00, -1.00, 353.6, 267.6)">s</text><text xml:space="preserve" font-family="Helvetica-Light,Helvetica" font-size="34.0" fill="#FEFFFF" transform="matrix(1.00, 0.00, -0.00, -1.00, 370.6, 267.6)">:</text><text xml:space="preserve" font-family="Helvetica-Light,Helvetica" font-size="34.0" fill="#FEFFFF" transform="matrix(1.00, 0.00, -0.00, -1.00, 380.1, 267.6)">/</text><text xml:space="preserve" font-family="Helvetica-Light,Helvetica" font-size="34.0" fill="#FEFFFF" transform="matrix(1.00, 0.00, -0.00, -1.00, 389.6, 267.6)">/</text><text xml:space="preserve" font-family="Helvetica-Light,Helvetica" font-size="34.0" fill="#FEFFFF" transform="matrix(1.00, 0.00, -0.00, -1.00, 399.0, 267.6)">g</text><text xml:space="preserve" font-family="Helvetica-Light,Helvetica" font-size="34.0" fill="#FEFFFF" transform="matrix(1.00, 0.00, -0.00, -1.00, 419.8, 267.6)">i</text><text xml:space="preserve" font-family="Helvetica-Light,Helvetica" font-size="34.0" fill="#FEFFFF" transform="matrix(1.00, 0.00, -0.00, -1.00, 427.3, 267.6)">t</text><text xml:space="preserve" font-family="Helvetica-Light,Helvetica" font-size="34.0" fill="#FEFFFF" transform="matrix(1.00, 0.00, -0.00, -1.00, 436.8, 267.6)">h</text><text xml:space="preserve" font-family="Helvetica-Light,Helvetica" font-size="34.0" fill="#FEFFFF" transform="matrix(1.00, 0.00, -0.00, -1.00, 455.7, 267.6)">u</text><text xml:space="preserve" font-family="Helvetica-Light,Helvetica" font-size="34.0" fill="#FEFFFF" transform="matrix(1.00, 0.00, -0.00, -1.00, 474.6, 267.6)">b</text><text xml:space="preserve" font-family="Helvetica-Light,Helvetica" font-size="34.0" fill="#FEFFFF" transform="matrix(1.00, 0.00, -0.00, -1.00, 495.4, 267.6)">.</text><text xml:space="preserve" font-family="Helvetica-Light,Helvetica" font-size="34.0" fill="#FEFFFF" transform="matrix(1.00, 0.00, -0.00, -1.00, 504.8, 267.6)">c</text><text xml:space="preserve" font-family="Helvetica-Light,Helvetica" font-size="34.0" fill="#FEFFFF" transform="matrix(1.00, 0.00, -0.00, -1.00, 523.7, 267.6)">o</text><text xml:space="preserve" font-family="Helvetica-Light,Helvetica" font-size="34.0" fill="#FEFFFF" transform="matrix(1.00, 0.00, -0.00, -1.00, 542.6, 267.6)">m</text><text xml:space="preserve" font-family="Helvetica-Light,Helvetica" font-size="34.0" fill="#FEFFFF" transform="matrix(1.00, 0.00, -0.00, -1.00, 570.9, 267.6)">/</text><text xml:space="preserve" font-family="Helvetica-Light,Helvetica" font-size="34.0" fill="#FEFFFF" transform="matrix(1.00, 0.00, -0.00, -1.00, 580.4, 267.6)">d</text><text xml:space="preserve" font-family="Helvetica-Light,Helvetica" font-size="34.0" fill="#FEFFFF" transform="matrix(1.00, 0.00, -0.00, -1.00, 601.2, 267.6)">6</text><text xml:space="preserve" font-family="Helvetica-Light,Helvetica" font-size="34.0" fill="#FEFFFF" transform="matrix(1.00, 0.00, -0.00, -1.00, 620.1, 267.6)">y</text><text xml:space="preserve" font-family="Helvetica-Light,Helvetica" font-size="34.0" fill="#FEFFFF" transform="matrix(1.00, 0.00, -0.00, -1.00, 637.1, 267.6)">/</text><text xml:space="preserve" font-family="Helvetica-Light,Helvetica" font-size="34.0" fill="#FEFFFF" transform="matrix(1.00, 0.00, -0.00, -1.00, 646.5, 267.6)">g</text><text xml:space="preserve" font-family="Helvetica-Light,Helvetica" font-size="34.0" fill="#FEFFFF" transform="matrix(1.00, 0.00, -0.00, -1.00, 667.3, 267.6)">e</text><text xml:space="preserve" font-family="Helvetica-Light,Helvetica" font-size="34.0" fill="#FEFFFF" transform="matrix(1.00, 0.00, -0.00, -1.00, 686.2, 267.6)">m</text><text xml:space="preserve" font-family="Helvetica-Light,Helvetica" font-size="34.0" fill="#FEFFFF" transform="matrix(1.00, 0.00, -0.00, -1.00, 714.5, 267.6)">s</text></g></svg>