<?xml version="1.0" encoding="UTF-8" standalone="no"?><svg xmlns="http://www.w3.org/2000/svg" xmlns:xlink="http://www.w3.org/1999/xlink" clip-rule="evenodd" stroke-miterlimit="10" viewBox="0 0 1024 768"><desc>SVG generated by Keynote</desc><defs></defs><g transform="matrix(1.00, 0.00, -0.00, -1.00, 0.0, 768.0)"><path d="M 0.0 768.0 L 1024.0 768.0 L 1024.0 0.0 L 0.0 0.0 Z M 0.0 768.0 " fill="#0D3A4C"></path><text xml:space="preserve" font-family="Lato-Regular,Lato" font-size="80.0" fill="#FEFFFF" transform="matrix(1.00, 0.00, -0.00, -1.00, 288.3, 353.0)">T</text><text xml:space="preserve" font-family="Lato-Regular,Lato" font-size="80.0" fill="#FEFFFF" transform="matrix(1.00, 0.00, -0.00, -1.00, 327.1, 353.0)">e</text><text xml:space="preserve" font-family="Lato-Regular,Lato" font-size="80.0" fill="#FEFFFF" transform="matrix(1.00, 0.00, -0.00, -1.00, 369.0, 353.0)">s</text><text xml:space="preserve" font-family="Lato-Regular,Lato" font-size="80.0" fill="#FEFFFF" transform="matrix(1.00, 0.00, -0.00, -1.00, 403.7, 353.0)">t</text><text xml:space="preserve" font-family="Lato-Regular,Lato" font-size="80.0" fill="#FEFFFF" transform="matrix(1.00, 0.00, -0.00, -1.00, 433.6, 353.0)">s</text><text xml:space="preserve" font-family="Lato-Regular,Lato" font-size="80.0" fill="#FEFFFF" transform="matrix(1.00, 0.00, -0.00, -1.00, 468.3, 353.0)"> </text><text xml:space="preserve" font-family="Lato-Regular,Lato" font-size="80.0" fill="#FEFFFF" transform="matrix(1.00, 0.00, -0.00, -1.00, 483.7, 353.0)">a</text><text xml:space="preserve" font-family="Lato-Regular,Lato" font-size="80.0" fill="#FEFFFF" transform="matrix(1.00, 0.00, -0.00, -1.00, 524.3, 353.0)">s</text><text xml:space="preserve" font-family="Lato-Regular,Lato" font-size="80.0" fill="#FEFFFF" transform="matrix(1.00, 0.00, -0.00, -1.00, 559.0, 353.0)"> </text><text xml:space="preserve" font-family="Lato-Regular,Lato" font-size="80.0" fill="#FEFFFF" transform="matrix(1.00, 0.00, -0.00, -1.00, 574.4, 353.0)">d</text><text xml:space="preserve" font-family="Lato-Regular,Lato" font-size="80.0" fill="#FEFFFF" transform="matrix(1.00, 0.00, -0.00, -1.00, 619.2, 353.0)">o</text><text xml:space="preserve" font-family="Lato-Regular,Lato" font-size="80.0" fill="#FEFFFF" transform="matrix(1.00, 0.00, -0.00, -1.00, 663.6, 353.0)">c</text><text xml:space="preserve" font-family="Lato-Regular,Lato" font-size="80.0" fill="#FEFFFF" transform="matrix(1.00, 0.00, -0.00, -1.00, 701.0, 353.0)">s</text><text xml:space="preserve" font-family="Lato-Regular,Lato" font-size="36.0" fill="#FEFFFF" transform="matrix(1.00, 0.00, -0.00, -1.00, 394.2, 474.3)">—</text><text xml:space="preserve" font-family="Lato-Regular,Lato" font-size="36.0" fill="#FEFFFF" transform="matrix(1.00, 0.00, -0.00, -1.00, 423.7, 474.3)"> </text><text xml:space="preserve" font-family="Lato-Regular,Lato" font-size="36.0" fill="#FEFFFF" transform="matrix(1.00, 0.00, -0.00, -1.00, 430.7, 474.3)">E</text><text xml:space="preserve" font-family="Lato-Regular,Lato" font-size="36.0" fill="#FEFFFF" transform="matrix(1.00, 0.00, -0.00, -1.00, 451.6, 474.3)">x</text><text xml:space="preserve" font-family="Lato-Regular,Lato" font-size="36.0" fill="#FEFFFF" transform="matrix(1.00, 0.00, -0.00, -1.00, 469.7, 474.3)">a</text><text xml:space="preserve" font-family="Lato-Regular,Lato" font-size="36.0" fill="#FEFFFF" transform="matrix(1.00, 0.00, -0.00, -1.00, 488.0, 474.3)">m</text><text xml:space="preserve" font-family="Lato-Regular,Lato" font-size="36.0" fill="#FEFFFF" transform="matrix(1.00, 0.00, -0.00, -1.00, 517.5, 474.3)">p</text><text xml:space="preserve" font-family="Lato-Regular,Lato" font-size="36.0" fill="#FEFFFF" transform="matrix(1.00, 0.00, -0.00, -1.00, 537.4, 474.3)">l</text><text xml:space="preserve" font-family="Lato-Regular,Lato" font-size="36.0" fill="#FEFFFF" transform="matrix(1.00, 0.00, -0.00, -1.00, 546.6, 474.3)">e</text><text xml:space="preserve" font-family="Lato-Regular,Lato" font-size="36.0" fill="#FEFFFF" transform="matrix(1.00, 0.00, -0.00, -1.00, 565.5, 474.3)"> </text><text xml:space="preserve" font-family="Lato-Regular,Lato" font-size="36.0" fill="#FEFFFF" transform="matrix(1.00, 0.00, -0.00, -1.00, 572.4, 474.3)">3</text><text xml:space="preserve" font-family="Lato-Regular,Lato" font-size="36.0" fill="#FEFFFF" transform="matrix(1.00, 0.00, -0.00, -1.00, 593.3, 474.3)"> </text><text xml:space="preserve" font-family="Lato-Regular,Lato" font-size="36.0" fill="#FEFFFF" transform="matrix(1.00, 0.00, -0.00, -1.00, 600.3, 474.3)">—</text><text xml:space="preserve" font-family="Lato-Regular,Lato" font-size="36.0" fill="#FEFFFF" transform="matrix(1.00, 0.00, -0.00, -1.00, 629.8, 474.3)"> </text></g></svg>