<?xml version="1.0" encoding="UTF-8" standalone="no"?><svg xmlns="http://www.w3.org/2000/svg" xmlns:xlink="http://www.w3.org/1999/xlink" clip-rule="evenodd" stroke-miterlimit="10" viewBox="0 0 1024 768"><desc>SVG generated by Keynote</desc><defs></defs><g transform="matrix(1.00, 0.00, -0.00, -1.00, 0.0, 768.0)"><path d="M 0.0 768.0 L 1024.0 768.0 L 1024.0 0.0 L 0.0 0.0 Z M 0.0 768.0 " fill="#0D3A4C"></path><text xml:space="preserve" font-family="Lato-Regular,Lato" font-size="80.0" fill="#FEFFFF" transform="matrix(1.00, 0.00, -0.00, -1.00, 275.5, 632.0)">O</text><text xml:space="preserve" font-family="Lato-Regular,Lato" font-size="80.0" fill="#FEFFFF" transform="matrix(1.00, 0.00, -0.00, -1.00, 339.4, 632.0)">b</text><text xml:space="preserve" font-family="Lato-Regular,Lato" font-size="80.0" fill="#FEFFFF" transform="matrix(1.00, 0.00, -0.00, -1.00, 384.1, 632.0)">s</text><text xml:space="preserve" font-family="Lato-Regular,Lato" font-size="80.0" fill="#FEFFFF" transform="matrix(1.00, 0.00, -0.00, -1.00, 418.8, 632.0)">e</text><text xml:space="preserve" font-family="Lato-Regular,Lato" font-size="80.0" fill="#FEFFFF" transform="matrix(1.00, 0.00, -0.00, -1.00, 460.7, 632.0)">r</text><text xml:space="preserve" font-family="Lato-Regular,Lato" font-size="80.0" fill="#FEFFFF" transform="matrix(1.00, 0.00, -0.00, -1.00, 493.0, 632.0)">v</text><text xml:space="preserve" font-family="Lato-Regular,Lato" font-size="80.0" fill="#FEFFFF" transform="matrix(1.00, 0.00, -0.00, -1.00, 533.9, 632.0)">a</text><text xml:space="preserve" font-family="Lato-Regular,Lato" font-size="80.0" fill="#FEFFFF" transform="matrix(1.00, 0.00, -0.00, -1.00, 574.5, 632.0)">t</text><text xml:space="preserve" font-family="Lato-Regular,Lato" font-size="80.0" fill="#FEFFFF" transform="matrix(1.00, 0.00, -0.00, -1.00, 604.3, 632.0)">i</text><text xml:space="preserve" font-family="Lato-Regular,Lato" font-size="80.0" fill="#FEFFFF" transform="matrix(1.00, 0.00, -0.00, -1.00, 624.8, 632.0)">o</text><text xml:space="preserve" font-family="Lato-Regular,Lato" font-size="80.0" fill="#FEFFFF" transform="matrix(1.00, 0.00, -0.00, -1.00, 669.3, 632.0)">n</text><text xml:space="preserve" font-family="Lato-Regular,Lato" font-size="80.0" fill="#FEFFFF" transform="matrix(1.00, 0.00, -0.00, -1.00, 713.8, 632.0)">s</text><text xml:space="preserve" font-family="Lato-Regular,Lato" font-size="38.0" fill="#FEFFFF" transform="matrix(1.00, 0.00, -0.00, -1.00, 277.0, 430.1)">L</text><text xml:space="preserve" font-family="Lato-Regular,Lato" font-size="38.0" fill="#FEFFFF" transform="matrix(1.00, 0.00, -0.00, -1.00, 295.8, 430.1)">e</text><text xml:space="preserve" font-family="Lato-Regular,Lato" font-size="38.0" fill="#FEFFFF" transform="matrix(1.00, 0.00, -0.00, -1.00, 315.7, 430.1)">t</text><text xml:space="preserve" font-family="Lato-Regular,Lato" font-size="38.0" fill="#FEFFFF" transform="matrix(1.00, 0.00, -0.00, -1.00, 329.9, 430.1)"> </text><text xml:space="preserve" font-family="Lato-Regular,Lato" font-size="38.0" fill="#FEFFFF" transform="matrix(1.00, 0.00, -0.00, -1.00, 337.3, 430.1)">t</text><text xml:space="preserve" font-family="Lato-Regular,Lato" font-size="38.0" fill="#FEFFFF" transform="matrix(1.00, 0.00, -0.00, -1.00, 351.4, 430.1)">h</text><text xml:space="preserve" font-family="Lato-Regular,Lato" font-size="38.0" fill="#FEFFFF" transform="matrix(1.00, 0.00, -0.00, -1.00, 372.6, 430.1)">e</text><text xml:space="preserve" font-family="Lato-Regular,Lato" font-size="38.0" fill="#FEFFFF" transform="matrix(1.00, 0.00, -0.00, -1.00, 392.5, 430.1)"> </text><text xml:space="preserve" font-family="Lato-Regular,Lato" font-size="38.0" fill="#FEFFFF" transform="matrix(1.00, 0.00, -0.00, -1.00, 399.8, 430.1)">t</text><text xml:space="preserve" font-family="Lato-Regular,Lato" font-size="38.0" fill="#FEFFFF" transform="matrix(1.00, 0.00, -0.00, -1.00, 414.0, 430.1)">y</text><text xml:space="preserve" font-family="Lato-Regular,Lato" font-size="38.0" fill="#FEFFFF" transform="matrix(1.00, 0.00, -0.00, -1.00, 433.4, 430.1)">p</text><text xml:space="preserve" font-family="Lato-Regular,Lato" font-size="38.0" fill="#FEFFFF" transform="matrix(1.00, 0.00, -0.00, -1.00, 454.4, 430.1)">e</text><text xml:space="preserve" font-family="Lato-Regular,Lato" font-size="38.0" fill="#FEFFFF" transform="matrix(1.00, 0.00, -0.00, -1.00, 474.3, 430.1)"> </text><text xml:space="preserve" font-family="Lato-Regular,Lato" font-size="38.0" fill="#FEFFFF" transform="matrix(1.00, 0.00, -0.00, -1.00, 481.7, 430.1)">s</text><text xml:space="preserve" font-family="Lato-Regular,Lato" font-size="38.0" fill="#FEFFFF" transform="matrix(1.00, 0.00, -0.00, -1.00, 498.1, 430.1)">y</text><text xml:space="preserve" font-family="Lato-Regular,Lato" font-size="38.0" fill="#FEFFFF" transform="matrix(1.00, 0.00, -0.00, -1.00, 517.6, 430.1)">s</text><text xml:space="preserve" font-family="Lato-Regular,Lato" font-size="38.0" fill="#FEFFFF" transform="matrix(1.00, 0.00, -0.00, -1.00, 534.1, 430.1)">t</text><text xml:space="preserve" font-family="Lato-Regular,Lato" font-size="38.0" fill="#FEFFFF" transform="matrix(1.00, 0.00, -0.00, -1.00, 548.3, 430.1)">e</text><text xml:space="preserve" font-family="Lato-Regular,Lato" font-size="38.0" fill="#FEFFFF" transform="matrix(1.00, 0.00, -0.00, -1.00, 568.2, 430.1)">m</text><text xml:space="preserve" font-family="Lato-Regular,Lato" font-size="38.0" fill="#FEFFFF" transform="matrix(1.00, 0.00, -0.00, -1.00, 599.4, 430.1)"> </text><text xml:space="preserve" font-family="Lato-Regular,Lato" font-size="38.0" fill="#FEFFFF" transform="matrix(1.00, 0.00, -0.00, -1.00, 606.7, 430.1)">h</text><text xml:space="preserve" font-family="Lato-Regular,Lato" font-size="38.0" fill="#FEFFFF" transform="matrix(1.00, 0.00, -0.00, -1.00, 627.8, 430.1)">e</text><text xml:space="preserve" font-family="Lato-Regular,Lato" font-size="38.0" fill="#FEFFFF" transform="matrix(1.00, 0.00, -0.00, -1.00, 647.8, 430.1)">l</text><text xml:space="preserve" font-family="Lato-Regular,Lato" font-size="38.0" fill="#FEFFFF" transform="matrix(1.00, 0.00, -0.00, -1.00, 657.5, 430.1)">p</text><text xml:space="preserve" font-family="Lato-Regular,Lato" font-size="38.0" fill="#FEFFFF" transform="matrix(1.00, 0.00, -0.00, -1.00, 678.5, 430.1)"> </text><text xml:space="preserve" font-family="Lato-Regular,Lato" font-size="38.0" fill="#FEFFFF" transform="matrix(1.00, 0.00, -0.00, -1.00, 685.8, 430.1)">y</text><text xml:space="preserve" font-family="Lato-Regular,Lato" font-size="38.0" fill="#FEFFFF" transform="matrix(1.00, 0.00, -0.00, -1.00, 704.8, 430.1)">o</text><text xml:space="preserve" font-family="Lato-Regular,Lato" font-size="38.0" fill="#FEFFFF" transform="matrix(1.00, 0.00, -0.00, -1.00, 725.9, 430.1)">u</text><text xml:space="preserve" font-family="Lato-Regular,Lato" font-size="38.0" fill="#FEFFFF" transform="matrix(1.00, 0.00, -0.00, -1.00, 747.0, 430.1)"> </text><text xml:space="preserve" font-family="Lato-Regular,Lato" font-size="38.0" fill="#FEFFFF" transform="matrix(1.00, 0.00, -0.00, -1.00, 200.7, 342.1)">G</text><text xml:space="preserve" font-family="Lato-Regular,Lato" font-size="38.0" fill="#FEFFFF" transform="matrix(1.00, 0.00, -0.00, -1.00, 228.6, 342.1)">e</text><text xml:space="preserve" font-family="Lato-Regular,Lato" font-size="38.0" fill="#FEFFFF" transform="matrix(1.00, 0.00, -0.00, -1.00, 248.5, 342.1)">t</text><text xml:space="preserve" font-family="Lato-Regular,Lato" font-size="38.0" fill="#FEFFFF" transform="matrix(1.00, 0.00, -0.00, -1.00, 262.7, 342.1)"> </text><text xml:space="preserve" font-family="Lato-Regular,Lato" font-size="38.0" fill="#FEFFFF" transform="matrix(1.00, 0.00, -0.00, -1.00, 270.1, 342.1)">d</text><text xml:space="preserve" font-family="Lato-Regular,Lato" font-size="38.0" fill="#FEFFFF" transform="matrix(1.00, 0.00, -0.00, -1.00, 291.3, 342.1)">a</text><text xml:space="preserve" font-family="Lato-Regular,Lato" font-size="38.0" fill="#FEFFFF" transform="matrix(1.00, 0.00, -0.00, -1.00, 310.6, 342.1)">t</text><text xml:space="preserve" font-family="Lato-Regular,Lato" font-size="38.0" fill="#FEFFFF" transform="matrix(1.00, 0.00, -0.00, -1.00, 324.7, 342.1)">a</text><text xml:space="preserve" font-family="Lato-Regular,Lato" font-size="38.0" fill="#FEFFFF" transform="matrix(1.00, 0.00, -0.00, -1.00, 344.0, 342.1)"> </text><text xml:space="preserve" font-family="Lato-Regular,Lato" font-size="38.0" fill="#FEFFFF" transform="matrix(1.00, 0.00, -0.00, -1.00, 351.3, 342.1)">i</text><text xml:space="preserve" font-family="Lato-Regular,Lato" font-size="38.0" fill="#FEFFFF" transform="matrix(1.00, 0.00, -0.00, -1.00, 361.1, 342.1)">n</text><text xml:space="preserve" font-family="Lato-Regular,Lato" font-size="38.0" fill="#FEFFFF" transform="matrix(1.00, 0.00, -0.00, -1.00, 382.2, 342.1)">t</text><text xml:space="preserve" font-family="Lato-Regular,Lato" font-size="38.0" fill="#FEFFFF" transform="matrix(1.00, 0.00, -0.00, -1.00, 396.4, 342.1)">o</text><text xml:space="preserve" font-family="Lato-Regular,Lato" font-size="38.0" fill="#FEFFFF" transform="matrix(1.00, 0.00, -0.00, -1.00, 417.5, 342.1)"> </text><text xml:space="preserve" font-family="Lato-Regular,Lato" font-size="38.0" fill="#FEFFFF" transform="matrix(1.00, 0.00, -0.00, -1.00, 424.8, 342.1)">t</text><text xml:space="preserve" font-family="Lato-Regular,Lato" font-size="38.0" fill="#FEFFFF" transform="matrix(1.00, 0.00, -0.00, -1.00, 439.0, 342.1)">y</text><text xml:space="preserve" font-family="Lato-Regular,Lato" font-size="38.0" fill="#FEFFFF" transform="matrix(1.00, 0.00, -0.00, -1.00, 458.5, 342.1)">p</text><text xml:space="preserve" font-family="Lato-Regular,Lato" font-size="38.0" fill="#FEFFFF" transform="matrix(1.00, 0.00, -0.00, -1.00, 479.4, 342.1)">e</text><text xml:space="preserve" font-family="Lato-Regular,Lato" font-size="38.0" fill="#FEFFFF" transform="matrix(1.00, 0.00, -0.00, -1.00, 499.3, 342.1)">s</text><text xml:space="preserve" font-family="Lato-Regular,Lato" font-size="38.0" fill="#FEFFFF" transform="matrix(1.00, 0.00, -0.00, -1.00, 515.8, 342.1)"> </text><text xml:space="preserve" font-family="Lato-Regular,Lato" font-size="38.0" fill="#FEFFFF" transform="matrix(1.00, 0.00, -0.00, -1.00, 523.2, 342.1)">a</text><text xml:space="preserve" font-family="Lato-Regular,Lato" font-size="38.0" fill="#FEFFFF" transform="matrix(1.00, 0.00, -0.00, -1.00, 542.4, 342.1)">s</text><text xml:space="preserve" font-family="Lato-Regular,Lato" font-size="38.0" fill="#FEFFFF" transform="matrix(1.00, 0.00, -0.00, -1.00, 558.9, 342.1)"> </text><text xml:space="preserve" font-family="Lato-Regular,Lato" font-size="38.0" fill="#FEFFFF" transform="matrix(1.00, 0.00, -0.00, -1.00, 566.3, 342.1)">s</text><text xml:space="preserve" font-family="Lato-Regular,Lato" font-size="38.0" fill="#FEFFFF" transform="matrix(1.00, 0.00, -0.00, -1.00, 582.8, 342.1)">o</text><text xml:space="preserve" font-family="Lato-Regular,Lato" font-size="38.0" fill="#FEFFFF" transform="matrix(1.00, 0.00, -0.00, -1.00, 603.9, 342.1)">o</text><text xml:space="preserve" font-family="Lato-Regular,Lato" font-size="38.0" fill="#FEFFFF" transform="matrix(1.00, 0.00, -0.00, -1.00, 625.0, 342.1)">n</text><text xml:space="preserve" font-family="Lato-Regular,Lato" font-size="38.0" fill="#FEFFFF" transform="matrix(1.00, 0.00, -0.00, -1.00, 646.1, 342.1)"> </text><text xml:space="preserve" font-family="Lato-Regular,Lato" font-size="38.0" fill="#FEFFFF" transform="matrix(1.00, 0.00, -0.00, -1.00, 653.5, 342.1)">a</text><text xml:space="preserve" font-family="Lato-Regular,Lato" font-size="38.0" fill="#FEFFFF" transform="matrix(1.00, 0.00, -0.00, -1.00, 672.7, 342.1)">s</text><text xml:space="preserve" font-family="Lato-Regular,Lato" font-size="38.0" fill="#FEFFFF" transform="matrix(1.00, 0.00, -0.00, -1.00, 689.2, 342.1)"> </text><text xml:space="preserve" font-family="Lato-Regular,Lato" font-size="38.0" fill="#FEFFFF" transform="matrix(1.00, 0.00, -0.00, -1.00, 696.6, 342.1)">y</text><text xml:space="preserve" font-family="Lato-Regular,Lato" font-size="38.0" fill="#FEFFFF" transform="matrix(1.00, 0.00, -0.00, -1.00, 715.5, 342.1)">o</text><text xml:space="preserve" font-family="Lato-Regular,Lato" font-size="38.0" fill="#FEFFFF" transform="matrix(1.00, 0.00, -0.00, -1.00, 736.7, 342.1)">u</text><text xml:space="preserve" font-family="Lato-Regular,Lato" font-size="38.0" fill="#FEFFFF" transform="matrix(1.00, 0.00, -0.00, -1.00, 757.8, 342.1)"> </text><text xml:space="preserve" font-family="Lato-Regular,Lato" font-size="38.0" fill="#FEFFFF" transform="matrix(1.00, 0.00, -0.00, -1.00, 765.1, 342.1)">c</text><text xml:space="preserve" font-family="Lato-Regular,Lato" font-size="38.0" fill="#FEFFFF" transform="matrix(1.00, 0.00, -0.00, -1.00, 782.9, 342.1)">a</text><text xml:space="preserve" font-family="Lato-Regular,Lato" font-size="38.0" fill="#FEFFFF" transform="matrix(1.00, 0.00, -0.00, -1.00, 802.1, 342.1)">n</text><text xml:space="preserve" font-family="Lato-Light,Lato" font-size="34.0" fill="#FEFFFF" transform="matrix(1.00, 0.00, -0.00, -1.00, 823.3, 342.1)"> </text><text xml:space="preserve" font-family="Lato-Regular,Lato" font-size="38.0" fill="#FEFFFF" transform="matrix(1.00, 0.00, -0.00, -1.00, 335.5, 254.1)">“</text><text xml:space="preserve" font-family="Lato-Regular,Lato" font-size="38.0" fill="#FEFFFF" transform="matrix(1.00, 0.00, -0.00, -1.00, 349.3, 254.1)">S</text><text xml:space="preserve" font-family="Lato-Regular,Lato" font-size="38.0" fill="#FEFFFF" transform="matrix(1.00, 0.00, -0.00, -1.00, 369.4, 254.1)">c</text><text xml:space="preserve" font-family="Lato-Regular,Lato" font-size="38.0" fill="#FEFFFF" transform="matrix(1.00, 0.00, -0.00, -1.00, 387.2, 254.1)">a</text><text xml:space="preserve" font-family="Lato-Regular,Lato" font-size="38.0" fill="#FEFFFF" transform="matrix(1.00, 0.00, -0.00, -1.00, 406.4, 254.1)">l</text><text xml:space="preserve" font-family="Lato-Regular,Lato" font-size="38.0" fill="#FEFFFF" transform="matrix(1.00, 0.00, -0.00, -1.00, 416.2, 254.1)">a</text><text xml:space="preserve" font-family="Lato-Regular,Lato" font-size="38.0" fill="#FEFFFF" transform="matrix(1.00, 0.00, -0.00, -1.00, 435.4, 254.1)"> </text><text xml:space="preserve" font-family="Lato-Regular,Lato" font-size="38.0" fill="#FEFFFF" transform="matrix(1.00, 0.00, -0.00, -1.00, 442.8, 254.1)">E</text><text xml:space="preserve" font-family="Lato-Regular,Lato" font-size="38.0" fill="#FEFFFF" transform="matrix(1.00, 0.00, -0.00, -1.00, 464.8, 254.1)">n</text><text xml:space="preserve" font-family="Lato-Regular,Lato" font-size="38.0" fill="#FEFFFF" transform="matrix(1.00, 0.00, -0.00, -1.00, 486.0, 254.1)">u</text><text xml:space="preserve" font-family="Lato-Regular,Lato" font-size="38.0" fill="#FEFFFF" transform="matrix(1.00, 0.00, -0.00, -1.00, 507.1, 254.1)">m</text><text xml:space="preserve" font-family="Lato-Regular,Lato" font-size="38.0" fill="#FEFFFF" transform="matrix(1.00, 0.00, -0.00, -1.00, 538.3, 254.1)">e</text><text xml:space="preserve" font-family="Lato-Regular,Lato" font-size="38.0" fill="#FEFFFF" transform="matrix(1.00, 0.00, -0.00, -1.00, 558.2, 254.1)">r</text><text xml:space="preserve" font-family="Lato-Regular,Lato" font-size="38.0" fill="#FEFFFF" transform="matrix(1.00, 0.00, -0.00, -1.00, 572.8, 254.1)">a</text><text xml:space="preserve" font-family="Lato-Regular,Lato" font-size="38.0" fill="#FEFFFF" transform="matrix(1.00, 0.00, -0.00, -1.00, 592.1, 254.1)">t</text><text xml:space="preserve" font-family="Lato-Regular,Lato" font-size="38.0" fill="#FEFFFF" transform="matrix(1.00, 0.00, -0.00, -1.00, 606.2, 254.1)">i</text><text xml:space="preserve" font-family="Lato-Regular,Lato" font-size="38.0" fill="#FEFFFF" transform="matrix(1.00, 0.00, -0.00, -1.00, 616.0, 254.1)">o</text><text xml:space="preserve" font-family="Lato-Regular,Lato" font-size="38.0" fill="#FEFFFF" transform="matrix(1.00, 0.00, -0.00, -1.00, 637.1, 254.1)">n</text><text xml:space="preserve" font-family="Lato-Regular,Lato" font-size="38.0" fill="#FEFFFF" transform="matrix(1.00, 0.00, -0.00, -1.00, 658.2, 254.1)">s</text><text xml:space="preserve" font-family="Lato-Regular,Lato" font-size="38.0" fill="#FEFFFF" transform="matrix(1.00, 0.00, -0.00, -1.00, 674.7, 254.1)">”</text><text xml:space="preserve" font-family="LucidaGrande,Lucida Grande" font-size="38.0" fill="#FEFFFF" transform="matrix(1.00, 0.00, -0.00, -1.00, 688.5, 254.1)"> </text><text xml:space="preserve" font-family="Lato-Light,Lato" font-size="34.0" fill="#FEFFFF" transform="matrix(1.00, 0.00, -0.00, -1.00, 180.8, 212.2)">h</text><text xml:space="preserve" font-family="Lato-Light,Lato" font-size="34.0" fill="#FEFFFF" transform="matrix(1.00, 0.00, -0.00, -1.00, 199.2, 212.2)">t</text><text xml:space="preserve" font-family="Lato-Light,Lato" font-size="34.0" fill="#FEFFFF" transform="matrix(1.00, 0.00, -0.00, -1.00, 211.3, 212.2)">t</text><text xml:space="preserve" font-family="Lato-Light,Lato" font-size="34.0" fill="#FEFFFF" transform="matrix(1.00, 0.00, -0.00, -1.00, 223.4, 212.2)">p</text><text xml:space="preserve" font-family="Lato-Light,Lato" font-size="34.0" fill="#FEFFFF" transform="matrix(1.00, 0.00, -0.00, -1.00, 241.6, 212.2)">s</text><text xml:space="preserve" font-family="Lato-Light,Lato" font-size="34.0" fill="#FEFFFF" transform="matrix(1.00, 0.00, -0.00, -1.00, 256.2, 212.2)">:</text><text xml:space="preserve" font-family="Lato-Light,Lato" font-size="34.0" fill="#FEFFFF" transform="matrix(1.00, 0.00, -0.00, -1.00, 264.2, 212.2)">/</text><text xml:space="preserve" font-family="Lato-Light,Lato" font-size="34.0" fill="#FEFFFF" transform="matrix(1.00, 0.00, -0.00, -1.00, 274.7, 212.2)">/</text><text xml:space="preserve" font-family="Lato-Light,Lato" font-size="34.0" fill="#FEFFFF" transform="matrix(1.00, 0.00, -0.00, -1.00, 285.6, 212.2)">u</text><text xml:space="preserve" font-family="Lato-Light,Lato" font-size="34.0" fill="#FEFFFF" transform="matrix(1.00, 0.00, -0.00, -1.00, 304.0, 212.2)">n</text><text xml:space="preserve" font-family="Lato-Light,Lato" font-size="34.0" fill="#FEFFFF" transform="matrix(1.00, 0.00, -0.00, -1.00, 322.4, 212.2)">d</text><text xml:space="preserve" font-family="Lato-Light,Lato" font-size="34.0" fill="#FEFFFF" transform="matrix(1.00, 0.00, -0.00, -1.00, 340.9, 212.2)">e</text><text xml:space="preserve" font-family="Lato-Light,Lato" font-size="34.0" fill="#FEFFFF" transform="matrix(1.00, 0.00, -0.00, -1.00, 358.3, 212.2)">r</text><text xml:space="preserve" font-family="Lato-Light,Lato" font-size="34.0" fill="#FEFFFF" transform="matrix(1.00, 0.00, -0.00, -1.00, 371.8, 212.2)">s</text><text xml:space="preserve" font-family="Lato-Light,Lato" font-size="34.0" fill="#FEFFFF" transform="matrix(1.00, 0.00, -0.00, -1.00, 386.4, 212.2)">c</text><text xml:space="preserve" font-family="Lato-Light,Lato" font-size="34.0" fill="#FEFFFF" transform="matrix(1.00, 0.00, -0.00, -1.00, 401.9, 212.2)">o</text><text xml:space="preserve" font-family="Lato-Light,Lato" font-size="34.0" fill="#FEFFFF" transform="matrix(1.00, 0.00, -0.00, -1.00, 420.3, 212.2)">r</text><text xml:space="preserve" font-family="Lato-Light,Lato" font-size="34.0" fill="#FEFFFF" transform="matrix(1.00, 0.00, -0.00, -1.00, 433.8, 212.2)">e</text><text xml:space="preserve" font-family="Lato-Light,Lato" font-size="34.0" fill="#FEFFFF" transform="matrix(1.00, 0.00, -0.00, -1.00, 451.2, 212.2)">c</text><text xml:space="preserve" font-family="Lato-Light,Lato" font-size="34.0" fill="#FEFFFF" transform="matrix(1.00, 0.00, -0.00, -1.00, 466.6, 212.2)">o</text><text xml:space="preserve" font-family="Lato-Light,Lato" font-size="34.0" fill="#FEFFFF" transform="matrix(1.00, 0.00, -0.00, -1.00, 485.0, 212.2)">n</text><text xml:space="preserve" font-family="Lato-Light,Lato" font-size="34.0" fill="#FEFFFF" transform="matrix(1.00, 0.00, -0.00, -1.00, 503.4, 212.2)">s</text><text xml:space="preserve" font-family="Lato-Light,Lato" font-size="34.0" fill="#FEFFFF" transform="matrix(1.00, 0.00, -0.00, -1.00, 518.1, 212.2)">u</text><text xml:space="preserve" font-family="Lato-Light,Lato" font-size="34.0" fill="#FEFFFF" transform="matrix(1.00, 0.00, -0.00, -1.00, 536.4, 212.2)">l</text><text xml:space="preserve" font-family="Lato-Light,Lato" font-size="34.0" fill="#FEFFFF" transform="matrix(1.00, 0.00, -0.00, -1.00, 544.5, 212.2)">t</text><text xml:space="preserve" font-family="Lato-Light,Lato" font-size="34.0" fill="#FEFFFF" transform="matrix(1.00, 0.00, -0.00, -1.00, 556.6, 212.2)">i</text><text xml:space="preserve" font-family="Lato-Light,Lato" font-size="34.0" fill="#FEFFFF" transform="matrix(1.00, 0.00, -0.00, -1.00, 564.7, 212.2)">n</text><text xml:space="preserve" font-family="Lato-Light,Lato" font-size="34.0" fill="#FEFFFF" transform="matrix(1.00, 0.00, -0.00, -1.00, 583.1, 212.2)">g</text><text xml:space="preserve" font-family="Lato-Light,Lato" font-size="34.0" fill="#FEFFFF" transform="matrix(1.00, 0.00, -0.00, -1.00, 600.2, 212.2)">.</text><text xml:space="preserve" font-family="Lato-Light,Lato" font-size="34.0" fill="#FEFFFF" transform="matrix(1.00, 0.00, -0.00, -1.00, 606.9, 212.2)">c</text><text xml:space="preserve" font-family="Lato-Light,Lato" font-size="34.0" fill="#FEFFFF" transform="matrix(1.00, 0.00, -0.00, -1.00, 622.4, 212.2)">o</text><text xml:space="preserve" font-family="Lato-Light,Lato" font-size="34.0" fill="#FEFFFF" transform="matrix(1.00, 0.00, -0.00, -1.00, 640.8, 212.2)">m</text><text xml:space="preserve" font-family="Lato-Light,Lato" font-size="34.0" fill="#FEFFFF" transform="matrix(1.00, 0.00, -0.00, -1.00, 667.8, 212.2)">/</text><text xml:space="preserve" font-family="Lato-Light,Lato" font-size="34.0" fill="#FEFFFF" transform="matrix(1.00, 0.00, -0.00, -1.00, 679.9, 212.2)">b</text><text xml:space="preserve" font-family="Lato-Light,Lato" font-size="34.0" fill="#FEFFFF" transform="matrix(1.00, 0.00, -0.00, -1.00, 698.5, 212.2)">l</text><text xml:space="preserve" font-family="Lato-Light,Lato" font-size="34.0" fill="#FEFFFF" transform="matrix(1.00, 0.00, -0.00, -1.00, 706.5, 212.2)">o</text><text xml:space="preserve" font-family="Lato-Light,Lato" font-size="34.0" fill="#FEFFFF" transform="matrix(1.00, 0.00, -0.00, -1.00, 724.9, 212.2)">g</text><text xml:space="preserve" font-family="Lato-Light,Lato" font-size="34.0" fill="#FEFFFF" transform="matrix(1.00, 0.00, -0.00, -1.00, 742.0, 212.2)">/</text><text xml:space="preserve" font-family="Lato-Light,Lato" font-size="34.0" fill="#FEFFFF" transform="matrix(1.00, 0.00, -0.00, -1.00, 752.9, 212.2)">p</text><text xml:space="preserve" font-family="Lato-Light,Lato" font-size="34.0" fill="#FEFFFF" transform="matrix(1.00, 0.00, -0.00, -1.00, 771.1, 212.2)">o</text><text xml:space="preserve" font-family="Lato-Light,Lato" font-size="34.0" fill="#FEFFFF" transform="matrix(1.00, 0.00, -0.00, -1.00, 789.5, 212.2)">s</text><text xml:space="preserve" font-family="Lato-Light,Lato" font-size="34.0" fill="#FEFFFF" transform="matrix(1.00, 0.00, -0.00, -1.00, 804.1, 212.2)">t</text><text xml:space="preserve" font-family="Lato-Light,Lato" font-size="34.0" fill="#FEFFFF" transform="matrix(1.00, 0.00, -0.00, -1.00, 816.2, 212.2)">s</text><text xml:space="preserve" font-family="Lato-Light,Lato" font-size="34.0" fill="#FEFFFF" transform="matrix(1.00, 0.00, -0.00, -1.00, 830.8, 212.2)">/</text><text xml:space="preserve" font-family="LucidaGrande,Lucida Grande" font-size="34.0" fill="#FEFFFF" transform="matrix(1.00, 0.00, -0.00, -1.00, 843.2, 212.2)"> </text><text xml:space="preserve" font-family="Lato-Light,Lato" font-size="34.0" fill="#FEFFFF" transform="matrix(1.00, 0.00, -0.00, -1.00, 280.0, 171.2)">2</text><text xml:space="preserve" font-family="Lato-Light,Lato" font-size="34.0" fill="#FEFFFF" transform="matrix(1.00, 0.00, -0.00, -1.00, 299.7, 171.2)">0</text><text xml:space="preserve" font-family="Lato-Light,Lato" font-size="34.0" fill="#FEFFFF" transform="matrix(1.00, 0.00, -0.00, -1.00, 319.4, 171.2)">1</text><text xml:space="preserve" font-family="Lato-Light,Lato" font-size="34.0" fill="#FEFFFF" transform="matrix(1.00, 0.00, -0.00, -1.00, 339.2, 171.2)">4</text><text xml:space="preserve" font-family="Lato-Light,Lato" font-size="34.0" fill="#FEFFFF" transform="matrix(1.00, 0.00, -0.00, -1.00, 358.9, 171.2)">/</text><text xml:space="preserve" font-family="Lato-Light,Lato" font-size="34.0" fill="#FEFFFF" transform="matrix(1.00, 0.00, -0.00, -1.00, 371.0, 171.2)">0</text><text xml:space="preserve" font-family="Lato-Light,Lato" font-size="34.0" fill="#FEFFFF" transform="matrix(1.00, 0.00, -0.00, -1.00, 390.7, 171.2)">9</text><text xml:space="preserve" font-family="Lato-Light,Lato" font-size="34.0" fill="#FEFFFF" transform="matrix(1.00, 0.00, -0.00, -1.00, 410.4, 171.2)">/</text><text xml:space="preserve" font-family="Lato-Light,Lato" font-size="34.0" fill="#FEFFFF" transform="matrix(1.00, 0.00, -0.00, -1.00, 422.5, 171.2)">0</text><text xml:space="preserve" font-family="Lato-Light,Lato" font-size="34.0" fill="#FEFFFF" transform="matrix(1.00, 0.00, -0.00, -1.00, 442.2, 171.2)">3</text><text xml:space="preserve" font-family="Lato-Light,Lato" font-size="34.0" fill="#FEFFFF" transform="matrix(1.00, 0.00, -0.00, -1.00, 462.0, 171.2)">/</text><text xml:space="preserve" font-family="Lato-Light,Lato" font-size="34.0" fill="#FEFFFF" transform="matrix(1.00, 0.00, -0.00, -1.00, 472.2, 171.2)">e</text><text xml:space="preserve" font-family="Lato-Light,Lato" font-size="34.0" fill="#FEFFFF" transform="matrix(1.00, 0.00, -0.00, -1.00, 489.6, 171.2)">n</text><text xml:space="preserve" font-family="Lato-Light,Lato" font-size="34.0" fill="#FEFFFF" transform="matrix(1.00, 0.00, -0.00, -1.00, 508.0, 171.2)">u</text><text xml:space="preserve" font-family="Lato-Light,Lato" font-size="34.0" fill="#FEFFFF" transform="matrix(1.00, 0.00, -0.00, -1.00, 526.4, 171.2)">m</text><text xml:space="preserve" font-family="Lato-Light,Lato" font-size="34.0" fill="#FEFFFF" transform="matrix(1.00, 0.00, -0.00, -1.00, 553.4, 171.2)">e</text><text xml:space="preserve" font-family="Lato-Light,Lato" font-size="34.0" fill="#FEFFFF" transform="matrix(1.00, 0.00, -0.00, -1.00, 570.8, 171.2)">r</text><text xml:space="preserve" font-family="Lato-Light,Lato" font-size="34.0" fill="#FEFFFF" transform="matrix(1.00, 0.00, -0.00, -1.00, 583.4, 171.2)">a</text><text xml:space="preserve" font-family="Lato-Light,Lato" font-size="34.0" fill="#FEFFFF" transform="matrix(1.00, 0.00, -0.00, -1.00, 600.0, 171.2)">t</text><text xml:space="preserve" font-family="Lato-Light,Lato" font-size="34.0" fill="#FEFFFF" transform="matrix(1.00, 0.00, -0.00, -1.00, 612.1, 171.2)">i</text><text xml:space="preserve" font-family="Lato-Light,Lato" font-size="34.0" fill="#FEFFFF" transform="matrix(1.00, 0.00, -0.00, -1.00, 620.1, 171.2)">o</text><text xml:space="preserve" font-family="Lato-Light,Lato" font-size="34.0" fill="#FEFFFF" transform="matrix(1.00, 0.00, -0.00, -1.00, 638.5, 171.2)">n</text><text xml:space="preserve" font-family="Lato-Light,Lato" font-size="34.0" fill="#FEFFFF" transform="matrix(1.00, 0.00, -0.00, -1.00, 656.9, 171.2)">s</text><text xml:space="preserve" font-family="Lato-Light,Lato" font-size="34.0" fill="#FEFFFF" transform="matrix(1.00, 0.00, -0.00, -1.00, 671.5, 171.2)">.</text><text xml:space="preserve" font-family="Lato-Light,Lato" font-size="34.0" fill="#FEFFFF" transform="matrix(1.00, 0.00, -0.00, -1.00, 678.2, 171.2)">h</text><text xml:space="preserve" font-family="Lato-Light,Lato" font-size="34.0" fill="#FEFFFF" transform="matrix(1.00, 0.00, -0.00, -1.00, 696.6, 171.2)">t</text><text xml:space="preserve" font-family="Lato-Light,Lato" font-size="34.0" fill="#FEFFFF" transform="matrix(1.00, 0.00, -0.00, -1.00, 708.7, 171.2)">m</text><text xml:space="preserve" font-family="Lato-Light,Lato" font-size="34.0" fill="#FEFFFF" transform="matrix(1.00, 0.00, -0.00, -1.00, 735.8, 171.2)">l</text></g></svg>