<?xml version="1.0" encoding="UTF-8" standalone="no"?><svg xmlns="http://www.w3.org/2000/svg" xmlns:xlink="http://www.w3.org/1999/xlink" clip-rule="evenodd" stroke-miterlimit="10" viewBox="0 0 419 62"><desc>SVG generated by Keynote</desc><defs></defs><g transform="matrix(1.00, 0.00, -0.00, -1.00, 0.0, 62.0)"><text xml:space="preserve" font-family="Lato-Regular,Lato" font-size="80.0" fill="#FEFFFF" transform="matrix(1.00, 0.00, -0.00, -1.00, -2.5, 2.0)">G</text><text xml:space="preserve" font-family="Lato-Regular,Lato" font-size="80.0" fill="#FEFFFF" transform="matrix(1.00, 0.00, -0.00, -1.00, 56.2, 2.0)">o</text><text xml:space="preserve" font-family="Lato-Regular,Lato" font-size="80.0" fill="#FEFFFF" transform="matrix(1.00, 0.00, -0.00, -1.00, 100.7, 2.0)">o</text><text xml:space="preserve" font-family="Lato-Regular,Lato" font-size="80.0" fill="#FEFFFF" transform="matrix(1.00, 0.00, -0.00, -1.00, 145.2, 2.0)">d</text><text xml:space="preserve" font-family="Lato-Regular,Lato" font-size="80.0" fill="#FEFFFF" transform="matrix(1.00, 0.00, -0.00, -1.00, 189.9, 2.0)"> </text><text xml:space="preserve" font-family="Lato-Regular,Lato" font-size="80.0" fill="#FEFFFF" transform="matrix(1.00, 0.00, -0.00, -1.00, 205.3, 2.0)">S</text><text xml:space="preserve" font-family="Lato-Regular,Lato" font-size="80.0" fill="#FEFFFF" transform="matrix(1.00, 0.00, -0.00, -1.00, 247.7, 2.0)">c</text><text xml:space="preserve" font-family="Lato-Regular,Lato" font-size="80.0" fill="#FEFFFF" transform="matrix(1.00, 0.00, -0.00, -1.00, 285.1, 2.0)">a</text><text xml:space="preserve" font-family="Lato-Regular,Lato" font-size="80.0" fill="#FEFFFF" transform="matrix(1.00, 0.00, -0.00, -1.00, 325.6, 2.0)">l</text><text xml:space="preserve" font-family="Lato-Regular,Lato" font-size="80.0" fill="#FEFFFF" transform="matrix(1.00, 0.00, -0.00, -1.00, 346.1, 2.0)">a</text><text xml:space="preserve" font-family="Lato-Regular,Lato" font-size="80.0" fill="#FEFFFF" transform="matrix(1.00, 0.00, -0.00, -1.00, 386.7, 2.0)">?</text></g></svg>