<?xml version="1.0" encoding="UTF-8" standalone="no"?><svg xmlns="http://www.w3.org/2000/svg" xmlns:xlink="http://www.w3.org/1999/xlink" clip-rule="evenodd" stroke-miterlimit="10" viewBox="0 0 548 214"><desc>SVG generated by Keynote</desc><defs></defs><g transform="matrix(1.00, 0.00, -0.00, -1.00, 0.0, 214.0)"><text xml:space="preserve" font-family="Lato-Regular,Lato" font-size="38.0" fill="#FEFFFF" transform="matrix(1.00, 0.00, -0.00, -1.00, 24.3, 184.1)">S</text><text xml:space="preserve" font-family="Lato-Regular,Lato" font-size="38.0" fill="#FEFFFF" transform="matrix(1.00, 0.00, -0.00, -1.00, 44.4, 184.1)">o</text><text xml:space="preserve" font-family="Lato-Regular,Lato" font-size="38.0" fill="#FEFFFF" transform="matrix(1.00, 0.00, -0.00, -1.00, 65.5, 184.1)">m</text><text xml:space="preserve" font-family="Lato-Regular,Lato" font-size="38.0" fill="#FEFFFF" transform="matrix(1.00, 0.00, -0.00, -1.00, 96.7, 184.1)">e</text><text xml:space="preserve" font-family="Lato-Regular,Lato" font-size="38.0" fill="#FEFFFF" transform="matrix(1.00, 0.00, -0.00, -1.00, 116.6, 184.1)">t</text><text xml:space="preserve" font-family="Lato-Regular,Lato" font-size="38.0" fill="#FEFFFF" transform="matrix(1.00, 0.00, -0.00, -1.00, 130.8, 184.1)">h</text><text xml:space="preserve" font-family="Lato-Regular,Lato" font-size="38.0" fill="#FEFFFF" transform="matrix(1.00, 0.00, -0.00, -1.00, 151.9, 184.1)">i</text><text xml:space="preserve" font-family="Lato-Regular,Lato" font-size="38.0" fill="#FEFFFF" transform="matrix(1.00, 0.00, -0.00, -1.00, 161.7, 184.1)">n</text><text xml:space="preserve" font-family="Lato-Regular,Lato" font-size="38.0" fill="#FEFFFF" transform="matrix(1.00, 0.00, -0.00, -1.00, 182.8, 184.1)">g</text><text xml:space="preserve" font-family="Lato-Regular,Lato" font-size="38.0" fill="#FEFFFF" transform="matrix(1.00, 0.00, -0.00, -1.00, 202.2, 184.1)"> </text><text xml:space="preserve" font-family="Lato-Regular,Lato" font-size="38.0" fill="#FEFFFF" transform="matrix(1.00, 0.00, -0.00, -1.00, 209.5, 184.1)">t</text><text xml:space="preserve" font-family="Lato-Regular,Lato" font-size="38.0" fill="#FEFFFF" transform="matrix(1.00, 0.00, -0.00, -1.00, 223.7, 184.1)">h</text><text xml:space="preserve" font-family="Lato-Regular,Lato" font-size="38.0" fill="#FEFFFF" transform="matrix(1.00, 0.00, -0.00, -1.00, 244.8, 184.1)">e</text><text xml:space="preserve" font-family="Lato-Regular,Lato" font-size="38.0" fill="#FEFFFF" transform="matrix(1.00, 0.00, -0.00, -1.00, 264.8, 184.1)"> </text><text xml:space="preserve" font-family="Lato-Regular,Lato" font-size="38.0" fill="#FEFFFF" transform="matrix(1.00, 0.00, -0.00, -1.00, 272.1, 184.1)">t</text><text xml:space="preserve" font-family="Lato-Regular,Lato" font-size="38.0" fill="#FEFFFF" transform="matrix(1.00, 0.00, -0.00, -1.00, 286.3, 184.1)">e</text><text xml:space="preserve" font-family="Lato-Regular,Lato" font-size="38.0" fill="#FEFFFF" transform="matrix(1.00, 0.00, -0.00, -1.00, 306.2, 184.1)">a</text><text xml:space="preserve" font-family="Lato-Regular,Lato" font-size="38.0" fill="#FEFFFF" transform="matrix(1.00, 0.00, -0.00, -1.00, 325.4, 184.1)">m</text><text xml:space="preserve" font-family="Lato-Regular,Lato" font-size="38.0" fill="#FEFFFF" transform="matrix(1.00, 0.00, -0.00, -1.00, 356.6, 184.1)"> </text><text xml:space="preserve" font-family="Lato-Regular,Lato" font-size="38.0" fill="#FEFFFF" transform="matrix(1.00, 0.00, -0.00, -1.00, 364.0, 184.1)">a</text><text xml:space="preserve" font-family="Lato-Regular,Lato" font-size="38.0" fill="#FEFFFF" transform="matrix(1.00, 0.00, -0.00, -1.00, 383.2, 184.1)">r</text><text xml:space="preserve" font-family="Lato-Regular,Lato" font-size="38.0" fill="#FEFFFF" transform="matrix(1.00, 0.00, -0.00, -1.00, 398.6, 184.1)">r</text><text xml:space="preserve" font-family="Lato-Regular,Lato" font-size="38.0" fill="#FEFFFF" transform="matrix(1.00, 0.00, -0.00, -1.00, 413.9, 184.1)">i</text><text xml:space="preserve" font-family="Lato-Regular,Lato" font-size="38.0" fill="#FEFFFF" transform="matrix(1.00, 0.00, -0.00, -1.00, 423.6, 184.1)">v</text><text xml:space="preserve" font-family="Lato-Regular,Lato" font-size="38.0" fill="#FEFFFF" transform="matrix(1.00, 0.00, -0.00, -1.00, 442.6, 184.1)">e</text><text xml:space="preserve" font-family="Lato-Regular,Lato" font-size="38.0" fill="#FEFFFF" transform="matrix(1.00, 0.00, -0.00, -1.00, 462.5, 184.1)">s</text><text xml:space="preserve" font-family="Lato-Regular,Lato" font-size="38.0" fill="#FEFFFF" transform="matrix(1.00, 0.00, -0.00, -1.00, 479.0, 184.1)"> </text><text xml:space="preserve" font-family="Lato-Regular,Lato" font-size="38.0" fill="#FEFFFF" transform="matrix(1.00, 0.00, -0.00, -1.00, 486.3, 184.1)">a</text><text xml:space="preserve" font-family="Lato-Regular,Lato" font-size="38.0" fill="#FEFFFF" transform="matrix(1.00, 0.00, -0.00, -1.00, 505.6, 184.1)">t</text><text xml:space="preserve" font-family="Lato-Regular,Lato" font-size="38.0" fill="#FEFFFF" transform="matrix(1.00, 0.00, -0.00, -1.00, 519.7, 184.1)"> </text><text xml:space="preserve" font-family="Lato-Regular,Lato" font-size="38.0" fill="#FEFFFF" transform="matrix(1.00, 0.00, -0.00, -1.00, -2.3, 96.1)">B</text><text xml:space="preserve" font-family="Lato-Regular,Lato" font-size="38.0" fill="#FEFFFF" transform="matrix(1.00, 0.00, -0.00, -1.00, 22.3, 96.1)">a</text><text xml:space="preserve" font-family="Lato-Regular,Lato" font-size="38.0" fill="#FEFFFF" transform="matrix(1.00, 0.00, -0.00, -1.00, 41.5, 96.1)">s</text><text xml:space="preserve" font-family="Lato-Regular,Lato" font-size="38.0" fill="#FEFFFF" transform="matrix(1.00, 0.00, -0.00, -1.00, 58.0, 96.1)">e</text><text xml:space="preserve" font-family="Lato-Regular,Lato" font-size="38.0" fill="#FEFFFF" transform="matrix(1.00, 0.00, -0.00, -1.00, 78.0, 96.1)">d</text><text xml:space="preserve" font-family="Lato-Regular,Lato" font-size="38.0" fill="#FEFFFF" transform="matrix(1.00, 0.00, -0.00, -1.00, 99.2, 96.1)"> </text><text xml:space="preserve" font-family="Lato-Regular,Lato" font-size="38.0" fill="#FEFFFF" transform="matrix(1.00, 0.00, -0.00, -1.00, 106.5, 96.1)">o</text><text xml:space="preserve" font-family="Lato-Regular,Lato" font-size="38.0" fill="#FEFFFF" transform="matrix(1.00, 0.00, -0.00, -1.00, 127.7, 96.1)">n</text><text xml:space="preserve" font-family="Lato-Regular,Lato" font-size="38.0" fill="#FEFFFF" transform="matrix(1.00, 0.00, -0.00, -1.00, 148.8, 96.1)"> </text><text xml:space="preserve" font-family="Lato-Regular,Lato" font-size="38.0" fill="#FEFFFF" transform="matrix(1.00, 0.00, -0.00, -1.00, 156.1, 96.1)">t</text><text xml:space="preserve" font-family="Lato-Regular,Lato" font-size="38.0" fill="#FEFFFF" transform="matrix(1.00, 0.00, -0.00, -1.00, 170.3, 96.1)">h</text><text xml:space="preserve" font-family="Lato-Regular,Lato" font-size="38.0" fill="#FEFFFF" transform="matrix(1.00, 0.00, -0.00, -1.00, 191.4, 96.1)">e</text><text xml:space="preserve" font-family="Lato-Regular,Lato" font-size="38.0" fill="#FEFFFF" transform="matrix(1.00, 0.00, -0.00, -1.00, 211.3, 96.1)"> </text><text xml:space="preserve" font-family="Lato-Regular,Lato" font-size="38.0" fill="#FEFFFF" transform="matrix(1.00, 0.00, -0.00, -1.00, 218.7, 96.1)">b</text><text xml:space="preserve" font-family="Lato-Regular,Lato" font-size="38.0" fill="#FEFFFF" transform="matrix(1.00, 0.00, -0.00, -1.00, 239.9, 96.1)">r</text><text xml:space="preserve" font-family="Lato-Regular,Lato" font-size="38.0" fill="#FEFFFF" transform="matrix(1.00, 0.00, -0.00, -1.00, 255.2, 96.1)">o</text><text xml:space="preserve" font-family="Lato-Regular,Lato" font-size="38.0" fill="#FEFFFF" transform="matrix(1.00, 0.00, -0.00, -1.00, 276.4, 96.1)">a</text><text xml:space="preserve" font-family="Lato-Regular,Lato" font-size="38.0" fill="#FEFFFF" transform="matrix(1.00, 0.00, -0.00, -1.00, 295.6, 96.1)">d</text><text xml:space="preserve" font-family="Lato-Regular,Lato" font-size="38.0" fill="#FEFFFF" transform="matrix(1.00, 0.00, -0.00, -1.00, 316.9, 96.1)">e</text><text xml:space="preserve" font-family="Lato-Regular,Lato" font-size="38.0" fill="#FEFFFF" transform="matrix(1.00, 0.00, -0.00, -1.00, 336.8, 96.1)">r</text><text xml:space="preserve" font-family="Lato-Regular,Lato" font-size="38.0" fill="#FEFFFF" transform="matrix(1.00, 0.00, -0.00, -1.00, 352.1, 96.1)"> </text><text xml:space="preserve" font-family="Lato-Regular,Lato" font-size="38.0" fill="#FEFFFF" transform="matrix(1.00, 0.00, -0.00, -1.00, 359.4, 96.1)">c</text><text xml:space="preserve" font-family="Lato-Regular,Lato" font-size="38.0" fill="#FEFFFF" transform="matrix(1.00, 0.00, -0.00, -1.00, 377.2, 96.1)">o</text><text xml:space="preserve" font-family="Lato-Regular,Lato" font-size="38.0" fill="#FEFFFF" transform="matrix(1.00, 0.00, -0.00, -1.00, 398.3, 96.1)">m</text><text xml:space="preserve" font-family="Lato-Regular,Lato" font-size="38.0" fill="#FEFFFF" transform="matrix(1.00, 0.00, -0.00, -1.00, 429.5, 96.1)">m</text><text xml:space="preserve" font-family="Lato-Regular,Lato" font-size="38.0" fill="#FEFFFF" transform="matrix(1.00, 0.00, -0.00, -1.00, 460.7, 96.1)">u</text><text xml:space="preserve" font-family="Lato-Regular,Lato" font-size="38.0" fill="#FEFFFF" transform="matrix(1.00, 0.00, -0.00, -1.00, 481.8, 96.1)">n</text><text xml:space="preserve" font-family="Lato-Regular,Lato" font-size="38.0" fill="#FEFFFF" transform="matrix(1.00, 0.00, -0.00, -1.00, 502.9, 96.1)">i</text><text xml:space="preserve" font-family="Lato-Regular,Lato" font-size="38.0" fill="#FEFFFF" transform="matrix(1.00, 0.00, -0.00, -1.00, 512.7, 96.1)">t</text><text xml:space="preserve" font-family="Lato-Regular,Lato" font-size="38.0" fill="#FEFFFF" transform="matrix(1.00, 0.00, -0.00, -1.00, 526.8, 96.1)">y</text><text xml:space="preserve" font-family="Lato-Regular,Lato" font-size="38.0" fill="#FEFFFF" transform="matrix(1.00, 0.00, -0.00, -1.00, 546.3, 96.1)"> </text><text xml:space="preserve" font-family="Lato-Regular,Lato" font-size="38.0" fill="#FEFFFF" transform="matrix(1.00, 0.00, -0.00, -1.00, 118.1, 8.1)">C</text><text xml:space="preserve" font-family="Lato-Regular,Lato" font-size="38.0" fill="#FEFFFF" transform="matrix(1.00, 0.00, -0.00, -1.00, 144.1, 8.1)">h</text><text xml:space="preserve" font-family="Lato-Regular,Lato" font-size="38.0" fill="#FEFFFF" transform="matrix(1.00, 0.00, -0.00, -1.00, 165.2, 8.1)">a</text><text xml:space="preserve" font-family="Lato-Regular,Lato" font-size="38.0" fill="#FEFFFF" transform="matrix(1.00, 0.00, -0.00, -1.00, 184.5, 8.1)">n</text><text xml:space="preserve" font-family="Lato-Regular,Lato" font-size="38.0" fill="#FEFFFF" transform="matrix(1.00, 0.00, -0.00, -1.00, 205.6, 8.1)">g</text><text xml:space="preserve" font-family="Lato-Regular,Lato" font-size="38.0" fill="#FEFFFF" transform="matrix(1.00, 0.00, -0.00, -1.00, 225.0, 8.1)">e</text><text xml:space="preserve" font-family="Lato-Regular,Lato" font-size="38.0" fill="#FEFFFF" transform="matrix(1.00, 0.00, -0.00, -1.00, 244.9, 8.1)">s</text><text xml:space="preserve" font-family="Lato-Regular,Lato" font-size="38.0" fill="#FEFFFF" transform="matrix(1.00, 0.00, -0.00, -1.00, 261.4, 8.1)"> </text><text xml:space="preserve" font-family="Lato-Regular,Lato" font-size="38.0" fill="#FEFFFF" transform="matrix(1.00, 0.00, -0.00, -1.00, 268.8, 8.1)">o</text><text xml:space="preserve" font-family="Lato-Regular,Lato" font-size="38.0" fill="#FEFFFF" transform="matrix(1.00, 0.00, -0.00, -1.00, 289.4, 8.1)">v</text><text xml:space="preserve" font-family="Lato-Regular,Lato" font-size="38.0" fill="#FEFFFF" transform="matrix(1.00, 0.00, -0.00, -1.00, 308.4, 8.1)">e</text><text xml:space="preserve" font-family="Lato-Regular,Lato" font-size="38.0" fill="#FEFFFF" transform="matrix(1.00, 0.00, -0.00, -1.00, 328.3, 8.1)">r</text><text xml:space="preserve" font-family="Lato-Regular,Lato" font-size="38.0" fill="#FEFFFF" transform="matrix(1.00, 0.00, -0.00, -1.00, 343.6, 8.1)"> </text><text xml:space="preserve" font-family="Lato-Regular,Lato" font-size="38.0" fill="#FEFFFF" transform="matrix(1.00, 0.00, -0.00, -1.00, 350.9, 8.1)">t</text><text xml:space="preserve" font-family="Lato-Regular,Lato" font-size="38.0" fill="#FEFFFF" transform="matrix(1.00, 0.00, -0.00, -1.00, 365.1, 8.1)">i</text><text xml:space="preserve" font-family="Lato-Regular,Lato" font-size="38.0" fill="#FEFFFF" transform="matrix(1.00, 0.00, -0.00, -1.00, 374.8, 8.1)">m</text><text xml:space="preserve" font-family="Lato-Regular,Lato" font-size="38.0" fill="#FEFFFF" transform="matrix(1.00, 0.00, -0.00, -1.00, 406.0, 8.1)">e</text></g></svg>